<?xml version="1.0" encoding="UTF-8" standalone="yes"?>
<!DOCTYPE svg PUBLIC "-//W3C//DTD SVG 1.1//EN" "http://www.w3.org/Graphics/SVG/1.1/DTD/svg11.dtd">

<svg width="292" height="376" viewBox="0 0 292 376" xmlns="http://www.w3.org/2000/svg" xmlns:xlink="http://www.w3.org/1999/xlink" version="1.1" baseProfile="full">
    <g transform="scale(1,-1) translate(0,-376)">
        <path d="M 88.269611 29.594037 C 77.151263 38.341336 65.286467 46.724005 57.180611 58.535331 C 40.119360 79.363156 26.986955 103.472647 18.008659 128.813472 C 12.579299 145.292453 10.721787 162.958873 3.719364 178.798325 C -3.596144 190.306122 4.979342 202.877263 17.582939 206.533108 C 23.189841 207.613637 33.055850 212.907453 21.147150 209.119883 C 10.467882 201.288930 9.438900 216.234941 20.387345 217.181831 C 27.859395 218.172634 30.610346 224.287344 28.052210 229.791156 C 20.028443 235.025791 47.501687 240.768237 33.676294 248.576281 C 19.283909 264.110282 53.816849 267.099866 45.294816 249.456358 C 43.257852 235.890595 69.432941 251.947677 63.354499 236.280043 C 69.530302 228.754538 86.473183 234.563801 86.047466 224.012441 C 95.041039 223.393903 98.127983 215.832128 106.562195 215.249863 C 115.317134 211.298116 131.171856 208.188263 134.146169 198.329891 C 125.467597 191.461103 105.376671 212.519914 104.406872 193.503791 C 107.031825 165.406288 106.361748 136.463062 116.638207 109.707632 C 121.498661 93.509266 133.289001 80.758681 143.930089 68.139807 C 154.116817 55.784391 167.913576 47.080996 181.977604 39.757847 C 194.312017 33.940949 207.608607 30.086567 221.054101 27.662060 C 226.504455 31.831443 236.131831 47.334900 244.632865 40.802107 C 245.043313 33.448419 227.758715 25.439915 243.821524 26.253171 C 253.261817 29.101489 259.802232 18.960579 267.572110 28.110687 C 274.731076 19.630656 297.326678 33.524776 292.233314 16.192447 C 285.343513 11.748156 275.298067 14.434206 268.400627 8.317586 C 257.028374 14.000841 247.973714 3.239483 235.379672 4.596829 C 221.397727 2.092154 207.167620 1.084159 192.992866 1.063173 C 169.732913 2.897771 145.982327 3.672848 123.856346 11.771074 C 111.388291 15.394452 99.225691 22.494236 88.269611 29.594037 L 88.269611 29.594037 Z M 107.911903 21.077724 C 120.082141 15.820178 131.985112 10.272462 145.325605 8.594390 C 166.489426 5.656350 188.346215 1.122338 209.584487 5.253542 C 199.972372 9.592832 190.031926 3.567848 180.456093 8.355764 C 168.973097 5.887354 156.646324 8.989577 144.966710 10.518727 C 131.693029 16.431072 117.361732 20.495455 104.929950 28.177508 C 89.388314 33.851227 112.961363 20.898281 117.159380 19.846382 C 126.868839 14.336845 106.480104 22.673697 103.601246 24.962663 C 95.466756 29.527215 94.430135 28.572677 102.797535 23.941304 C 104.481324 22.956244 106.146023 21.919623 107.911903 21.077724 L 107.911903 21.077724 Z M 84.749310 37.445980 C 96.547280 33.076150 84.697759 45.738928 79.298947 45.007754 C 76.904989 49.161859 70.148836 51.786830 74.913848 54.016597 C 66.345992 51.040378 65.935545 65.329667 61.909345 63.285069 C 52.841320 66.148666 58.381405 76.291490 47.576139 82.524561 C 46.591066 89.087893 36.845329 94.776891 33.743111 104.673432 C 32.370499 109.743896 22.727848 124.292824 28.649744 110.751874 C 33.689658 97.716828 42.557227 86.545022 49.939553 75.396134 C 55.666725 64.777955 62.438153 53.672971 72.871150 47.050456 C 76.391455 43.673326 79.783847 38.505501 84.749310 37.445980 L 84.749310 37.445980 Z M 50.775723 74.754683 C 51.184260 76.537755 52.931046 70.900300 50.775723 74.754683 L 50.775723 74.754683 Z M 98.882056 32.211351 C 101.491740 33.381597 95.123130 33.687045 98.882056 32.211351 L 98.882056 32.211351 Z M 105.279310 29.876566 C 104.616872 33.099050 102.356548 28.072508 105.279310 29.876566 L 105.279310 29.876566 Z M 113.297350 26.535718 C 117.107828 30.168649 107.413639 28.826581 113.297350 26.535718 L 113.297350 26.535718 Z M 127.033021 18.878497 C 129.352527 22.301428 119.612512 20.167107 127.033021 18.878497 L 127.033021 18.878497 Z M 100.657481 37.266536 C 106.577474 41.099915 92.998346 37.319976 100.657481 37.266536 L 100.657481 37.266536 Z M 106.667196 34.269314 C 106.495383 36.290995 104.527142 33.360594 106.667196 34.269314 L 106.667196 34.269314 Z M 136.711941 15.514730 C 141.543770 12.464051 164.923993 8.833033 150.285335 14.262384 C 147.830289 13.746937 123.140452 21.249546 136.711941 15.514730 L 136.711941 15.514730 Z M 89.016054 52.666890 C 88.546424 54.694313 81.513453 54.911953 89.016054 52.666890 L 89.016054 52.666890 Z M 102.997991 44.507585 C 106.644287 47.050456 95.443847 46.470101 102.997991 44.507585 L 102.997991 44.507585 Z M 114.765421 37.297076 C 119.992420 39.265317 106.294927 39.272956 114.765421 37.297076 L 114.765421 37.297076 Z M 83.317512 58.863696 C 88.985506 54.516766 106.182296 58.304344 91.997998 61.458110 C 85.547297 64.896320 71.006004 67.252090 80.917829 59.384869 L 83.317512 58.863696 L 83.317512 58.863696 Z M 122.737643 34.805748 C 125.101053 38.826227 112.833454 37.104268 122.737643 34.805748 L 122.737643 34.805748 Z M 110.760212 44.322399 C 124.616154 40.406938 99.105421 53.092616 107.339187 45.769467 L 109.166154 44.940933 L 110.760212 44.322399 L 110.760212 44.322399 Z M 134.774248 30.443557 C 147.899025 30.317553 122.917096 32.255255 134.774248 30.443557 L 134.774248 30.443557 Z M 78.269966 66.456027 C 77.754518 68.901520 75.034118 66.253666 78.269966 66.456027 L 78.269966 66.456027 Z M 156.974671 17.990780 C 157.324040 22.404514 152.692666 14.701475 156.974671 17.990780 L 156.974671 17.990780 Z M 100.670845 52.741350 C 99.872859 55.068496 96.570189 52.838711 100.670845 52.741350 L 100.670845 52.741350 Z M 79.514673 67.990903 C 87.047813 68.445254 69.194306 71.308851 79.514673 67.990903 L 79.514673 67.990903 Z M 54.450657 84.189251 C 53.511402 87.805007 46.255074 90.683865 54.450657 84.189251 L 54.450657 84.189251 Z M 120.246324 42.434344 C 118.867983 44.009330 119.597242 42.092632 120.246324 42.434344 L 120.246324 42.434344 Z M 161.193700 17.303511 C 161.067697 19.712739 158.963916 16.394808 161.193700 17.303511 L 161.193700 17.303511 Z M 116.622928 46.178018 C 117.361732 49.280223 110.195136 47.119174 116.622928 46.178018 L 116.622928 46.178018 Z M 86.114287 65.514853 C 91.723090 66.112384 77.128354 69.304328 86.114287 65.514853 L 86.114287 65.514853 Z M 137.719927 33.448419 C 146.459587 36.909529 129.203623 35.134113 137.719927 33.448419 L 137.719927 33.448419 Z M 110.880482 51.666551 C 120.946949 50.370301 98.897335 58.520070 108.665976 52.397724 L 110.880482 51.666551 L 110.880482 51.666551 Z M 145.869687 30.153388 C 155.273716 35.767925 152.171494 16.990424 161.821770 28.565038 C 171.336525 35.514021 153.603283 19.974282 165.326801 27.326073 C 173.812557 33.001689 186.339795 24.634298 194.252834 21.911984 C 199.941832 22.188788 205.476200 16.990424 211.314085 20.153743 C 222.545073 23.181505 189.346571 24.641938 198.048052 30.004484 C 187.771602 27.012987 180.181185 33.568680 175.124085 40.153016 C 163.595289 42.816166 150.270074 48.707507 144.512350 58.915239 C 142.164209 62.740996 147.899025 58.371166 142.484935 64.634776 C 135.541694 70.810579 132.074842 77.828280 127.412920 85.336597 C 121.842296 88.305177 121.185575 97.052476 120.626223 85.626766 C 120.672041 92.839189 113.900614 97.693927 112.245459 95.679868 C 112.214920 102.623109 119.494156 99.140996 114.400792 104.278263 C 113.304989 111.475408 109.694958 118.976095 108.612528 127.104869 C 106.928739 131.020339 108.373893 139.408742 102.856717 130.543078 C 100.850298 121.169606 102.192365 142.056604 105.317488 135.174452 C 109.418144 142.197869 103.839881 141.371249 103.616525 140.401450 C 106.287296 146.329073 105.309858 154.742291 102.915900 151.535077 C 104.340059 157.821596 105.168584 174.667121 100.791115 171.677538 C 103.444703 178.254243 105.825306 201.760466 94.294596 192.795531 C 89.626949 192.728714 81.536362 191.102198 77.718245 189.200779 C 89.701401 182.593525 76.509811 186.814451 71.624538 187.866350 C 70.990730 181.751635 66.158905 184.391858 60.118647 184.332676 C 69.768932 183.139521 55.420456 174.466674 49.895645 177.836156 C 42.706135 174.405577 56.092447 165.830091 50.036914 163.176504 C 50.783357 159.186573 39.029291 164.621658 39.947547 155.389459 C 32.973761 158.329405 38.993018 144.442924 42.482775 149.141119 C 54.347566 145.926265 50.834900 138.610756 51.132713 131.654151 C 49.200750 127.605038 41.587428 141.176527 49.439380 140.550354 C 43.242582 150.611087 42.587775 144.189019 37.440954 139.513742 C 36.247794 139.177747 50.565726 132.862585 41.579793 129.745092 C 49.485198 128.521389 49.716193 121.601048 51.327439 117.223588 C 56.077173 112.273403 55.099735 122.691126 60.790638 116.738680 C 57.188246 122.042044 41.728697 131.677060 54.175753 128.588202 C 54.108936 133.920200 51.923064 138.223217 55.741177 138.120122 C 59.523022 144.958371 51.781795 121.251697 60.298099 129.945539 C 62.653878 130.974521 63.243774 136.791419 67.479974 129.393827 C 73.630958 123.338294 69.702115 118.955100 61.021633 124.502815 C 62.571787 119.229999 72.632520 117.351489 70.738735 109.110084 C 72.743245 101.861396 75.547651 104.532168 77.993153 104.950254 C 79.909851 97.909653 80.999920 103.085099 81.089642 106.441226 C 89.865583 104.560810 87.807621 99.371982 90.558569 95.746690 C 96.606463 93.018650 81.900992 114.249266 92.282451 102.130579 C 103.206077 92.264559 96.383107 88.148634 86.578183 89.729345 C 92.782620 90.229514 94.779495 81.339036 102.543631 81.652123 C 109.620506 78.282631 114.416062 65.350671 102.215274 70.736118 C 97.986709 74.554235 83.004425 79.260070 95.243400 72.003743 C 106.533561 66.769096 115.511856 63.643973 126.406848 57.073002 C 134.199626 51.510008 137.569109 45.135672 140.522419 43.873773 C 133.968631 40.742925 120.777041 46.372740 130.574325 48.094699 C 124.459611 49.205780 117.585097 52.300363 123.438268 44.687029 C 128.418993 40.525285 141.074140 40.966289 143.349734 40.496660 C 141.425405 36.260455 138.122736 35.924468 143.424186 35.596103 C 137.509927 32.442338 145.325605 31.949808 145.869687 30.153388 L 145.869687 30.153388 Z M 133.773900 64.314050 C 130.171508 68.080625 129.239888 75.126951 133.132458 68.998881 C 135.131247 68.193264 139.523986 57.475810 133.773900 64.314050 L 133.773900 64.314050 Z M 173.171123 39.288217 C 175.416168 39.437121 173.237944 37.581520 173.171123 39.288217 L 173.171123 39.288217 Z M 128.092551 73.546258 C 127.949372 79.237152 129.388801 69.155424 128.092551 73.546258 L 128.092551 73.546258 Z M 124.177072 78.811443 C 119.643060 87.558742 129.881331 76.335394 124.177072 78.811443 L 124.177072 78.811443 Z M 76.717906 111.563233 C 79.381039 112.273403 78.031331 107.015857 76.717906 111.563233 L 76.717906 111.563233 Z M 114.490514 91.094313 C 116.122759 97.231937 116.407212 85.947492 114.490514 91.094313 L 114.490514 91.094313 Z M 87.807621 109.648449 C 85.929101 113.033202 91.738369 106.469869 87.807621 109.648449 L 87.807621 109.648449 Z M 110.701039 102.310022 C 106.413291 111.914499 113.744070 107.559930 111.655559 100.736968 L 110.701039 102.310022 L 110.701039 102.310022 Z M 71.216000 128.641659 C 69.299306 131.795416 66.130271 141.042893 67.151618 143.868302 C 68.067964 139.267468 76.927898 124.077098 71.490904 137.574135 C 65.488828 148.887214 78.672774 133.906836 80.030121 131.079521 C 80.663924 128.275115 76.322728 131.846967 79.260769 125.262623 C 73.900136 132.757584 76.099372 121.123788 71.216000 128.641659 L 71.216000 128.641659 Z M 59.015213 137.052962 C 59.515387 144.383741 61.804345 132.026420 59.015213 137.052962 L 59.015213 137.052962 Z M 64.503755 135.159182 C 67.121069 140.691628 68.940402 127.448495 64.503755 135.159182 L 64.503755 135.159182 Z M 51.296895 145.374544 C 46.755248 149.895192 43.465938 154.055030 51.512617 148.178950 C 54.607200 148.060585 44.622829 157.642144 52.259060 151.221990 C 60.282829 149.759652 56.218442 138.059035 51.296895 145.374544 L 51.296895 145.374544 Z M 58.232501 145.553996 C 60.872724 148.171311 59.633747 142.980586 58.232501 145.553996 L 58.232501 145.553996 Z M 62.504970 144.189019 C 58.499770 151.683981 67.359704 141.042893 62.504970 144.189019 L 62.504970 144.189019 Z M 54.019210 152.294876 C 40.812351 164.056581 70.610826 146.151527 56.174534 150.118548 L 54.019210 152.294876 L 54.019210 152.294876 Z M 91.864364 130.312083 C 86.144827 133.735023 90.342844 154.434930 92.297720 140.281180 C 97.853075 142.079513 91.990359 132.965671 96.129202 133.055401 C 95.482026 127.307221 93.624519 125.239714 91.864364 130.312083 L 91.864364 130.312083 Z M 105.861570 122.034405 C 106.420931 128.275115 107.039464 117.767661 105.861570 122.034405 L 105.861570 122.034405 Z M 103.431347 124.443642 C 104.057512 127.104869 103.490521 121.303240 103.431347 124.443642 L 103.431347 124.443642 Z M 56.605981 156.158811 C 48.120221 167.867059 81.267188 144.316929 62.042979 153.190223 C 60.036560 153.719035 57.613963 153.906126 56.605981 156.158811 L 56.605981 156.158811 Z M 83.563786 141.869513 C 82.760066 151.727885 85.354480 140.237267 83.563786 141.869513 L 83.563786 141.869513 Z M 104.026972 128.739020 C 105.607666 134.353557 104.147242 125.023997 104.026972 128.739020 L 104.026972 128.739020 Z M 57.911780 160.626002 C 62.953601 161.706535 78.806409 151.773703 64.249851 157.791057 C 62.632875 159.581751 59.179391 158.768495 57.911780 160.626002 L 57.911780 160.626002 Z M 101.214927 139.044112 C 101.753284 149.125840 104.229333 145.061457 101.237836 137.597044 L 101.214927 139.044112 L 101.214927 139.044112 Z M 61.663076 164.136758 C 63.721039 167.151164 56.203172 177.761704 62.743600 167.941511 C 65.570915 165.696457 70.923913 164.182576 66.197088 163.235686 C 73.630958 156.679984 64.385390 161.460261 61.663076 164.136758 L 61.663076 164.136758 Z M 99.074873 142.190239 C 100.493307 153.675122 100.329125 135.464629 99.074873 142.190239 L 99.074873 142.190239 Z M 57.367698 174.741573 C 58.940761 175.413564 58.201953 172.647337 57.367698 174.741573 L 57.367698 174.741573 Z M 67.128709 168.932314 C 69.641027 174.205130 71.760082 163.056234 67.128709 168.932314 L 67.128709 168.932314 Z M 94.653500 153.623579 C 94.630591 155.643363 95.174673 150.677908 94.653500 153.623579 L 94.653500 153.623579 Z M 93.057528 157.149614 C 89.239410 166.576534 96.614102 152.161241 93.057528 157.149614 L 93.057528 157.149614 Z M 90.715113 163.333047 C 90.075575 167.225616 92.893345 158.440130 90.715113 163.333047 L 90.715113 163.333047 Z M 94.533230 169.537484 C 91.908276 174.153587 97.845445 189.895674 98.509796 180.132754 C 95.741664 172.527067 97.711810 168.275601 99.634225 178.477599 C 103.200352 186.501373 98.866787 162.630516 94.533230 169.537484 L 94.533230 169.537484 Z M 98.456339 192.944440 C 99.597960 194.347595 98.710243 191.253012 98.456339 192.944440 L 98.456339 192.944440 Z M 91.902543 63.836799 C 90.350483 65.194128 92.102998 62.979622 91.902543 63.836799 L 91.902543 63.836799 Z M 105.399580 57.013819 C 112.907906 55.081860 112.871632 58.178341 106.084935 59.102322 C 102.438631 62.494731 90.917474 66.097123 101.230197 59.520409 C 101.909827 57.788897 104.065151 57.834714 105.399580 57.013819 L 105.399580 57.013819 Z M 78.747235 74.718418 C 82.878430 71.629560 94.325144 65.978758 84.638585 73.538618 C 87.904982 77.335732 78.388330 79.355516 81.544002 81.898388 C 73.512597 86.814205 75.204017 86.373218 80.835737 86.216674 C 71.185456 90.534961 82.229348 90.206596 81.708175 92.421102 C 77.987428 93.152276 63.220865 98.984452 71.908986 91.943851 C 63.079596 96.441581 69.805205 90.265779 67.136343 90.914869 C 58.104592 93.375641 75.175382 84.038433 65.704549 86.357939 C 70.880005 82.257292 79.642582 75.842846 67.888512 82.018649 C 66.345992 79.788882 76.301725 76.409837 78.747235 74.718418 L 78.747235 74.718418 Z M 92.862806 66.604931 C 110.023323 61.078202 84.443854 73.368711 92.862806 66.604931 L 92.862806 66.604931 Z M 165.124440 22.830240 C 165.347805 26.237910 162.782033 19.922739 165.124440 22.830240 L 165.124440 22.830240 Z M 172.552589 19.705117 C 176.511971 23.538495 172.716771 13.590393 179.114025 20.644359 C 179.180829 25.693819 178.921199 28.675763 171.762233 22.540054 C 169.784456 21.442354 168.906293 16.797616 172.552589 19.705117 L 172.552589 19.705117 Z M 54.653018 93.747909 C 53.436945 98.528187 46.129075 98.507183 54.653018 93.747909 L 54.653018 93.747909 Z M 62.579422 88.551442 C 59.633747 93.434823 52.071973 92.972832 62.579422 88.551442 L 62.579422 88.551442 Z M 107.703816 61.339746 C 112.111825 57.424267 127.936008 58.468527 113.051085 60.854837 C 110.849943 64.113603 99.061509 63.330887 107.703816 61.339746 L 107.703816 61.339746 Z M 169.725274 23.030687 C 176.504332 28.721581 163.156199 20.495455 169.725274 23.030687 L 169.725274 23.030687 Z M 183.827481 13.344128 C 183.871384 15.171104 180.904719 12.546151 183.827481 13.344128 L 183.827481 13.344128 Z M 183.850381 15.902260 C 191.358715 23.851582 176.578793 15.432648 183.850381 15.902260 L 183.850381 15.902260 Z M 35.144359 110.079883 C 28.747108 119.207090 31.169700 123.309660 24.995809 130.766434 C 23.823647 136.470702 14.406268 149.402653 20.125804 135.703264 C 25.360439 127.687129 26.912503 115.278247 35.144359 110.079883 L 35.144359 110.079883 Z M 181.492696 18.429853 C 195.312373 27.356613 175.826616 22.314792 181.492696 18.429853 L 181.492696 18.429853 Z M 192.038328 14.298666 C 198.958669 20.235826 187.660859 15.537631 192.038328 14.298666 L 192.038328 14.298666 Z M 52.302968 103.839173 C 54.280749 106.784853 47.188600 104.219081 52.302968 103.839173 L 52.302968 103.839173 Z M 189.837187 17.118342 C 196.534162 21.434715 188.294672 20.772277 188.623037 16.723155 L 189.837187 17.118342 L 189.837187 17.118342 Z M 98.948878 74.405331 C 98.717883 77.328093 95.407574 74.159066 98.948878 74.405331 L 98.948878 74.405331 Z M 104.563415 71.175208 C 102.774626 74.785239 101.820097 70.608217 104.563415 71.175208 L 104.563415 71.175208 Z M 200.583284 14.201305 C 209.166400 20.392369 195.386816 15.388727 198.786847 13.023402 L 200.583284 14.201305 L 200.583284 14.201305 Z M 197.295875 15.789638 C 204.290676 21.644715 189.919286 13.195224 197.295875 15.789638 L 197.295875 15.789638 Z M 214.087942 4.612108 C 218.780412 7.752509 208.383684 5.625811 214.087942 4.612108 L 214.087942 4.612108 Z M 56.605981 105.963957 C 62.892509 104.555085 81.744449 90.475779 70.626100 104.986519 C 64.929472 106.672230 68.344777 120.594976 62.535514 118.134205 C 66.435718 111.616673 65.740823 108.850455 57.552875 112.951119 C 47.270692 117.977662 51.774160 110.467430 53.788215 108.394189 C 51.042991 107.768016 57.411606 106.015500 56.605981 105.963957 L 56.605981 105.963957 Z M 27.949122 128.595841 C 29.073556 133.257754 17.575303 154.219204 22.519762 139.103295 C 24.300912 135.934259 24.115734 129.932175 27.949122 128.595841 L 27.949122 128.595841 Z M 80.551294 96.164777 C 77.307797 98.871813 80.394750 96.552307 80.551294 96.164777 L 80.551294 96.164777 Z M 88.523515 94.307261 C 88.523515 99.244082 79.709395 96.313681 88.523515 94.307261 L 88.523515 94.307261 Z M 157.652387 50.734931 C 156.333237 54.106319 152.440659 50.809391 157.652387 50.734931 L 157.652387 50.734931 Z M 160.970336 48.312338 C 160.477806 50.198479 159.053638 47.945795 160.970336 48.312338 L 160.970336 48.312338 Z M 188.369132 31.048727 C 191.001725 32.994068 185.079827 31.300717 188.369132 31.048727 L 188.369132 31.048727 Z M 42.259414 124.941906 C 49.798284 127.858942 34.182194 127.022778 42.259414 124.941906 L 42.259414 124.941906 Z M 151.566324 56.082199 C 151.478499 60.959837 146.757404 54.866135 151.566324 56.082199 L 151.566324 56.082199 Z M 39.283196 131.885146 C 44.122655 133.517392 34.800728 132.958031 39.283196 131.885146 L 39.283196 131.885146 Z M 53.331949 125.077445 C 53.249858 126.679143 51.848612 124.464637 53.331949 125.077445 L 53.331949 125.077445 Z M 224.738575 19.966643 C 230.964024 21.226628 245.155952 16.797616 247.444902 21.614176 C 239.883127 21.801258 221.292726 26.953805 220.412649 20.392369 L 222.067804 20.130825 L 224.738575 19.966643 L 224.738575 19.966643 Z M 57.799145 123.951103 C 57.911780 128.895563 53.944758 124.136280 57.799145 123.951103 L 57.799145 123.951103 Z M 20.856973 149.580200 C 19.178911 158.999490 14.473085 151.006265 20.856973 149.580200 L 20.856973 149.580200 Z M 29.663454 147.365694 C 29.776089 150.393456 21.601506 150.088009 29.663454 147.365694 L 29.663454 147.365694 Z M 34.697640 144.889644 C 33.242937 146.069444 33.563658 143.406303 34.697640 144.889644 L 34.697640 144.889644 Z M 66.382265 124.569637 C 67.875147 125.942253 62.848600 125.583349 66.382265 124.569637 L 66.382265 124.569637 Z M 31.349152 150.467908 C 30.491986 157.582970 21.139513 151.535077 31.349152 150.467908 L 31.349152 150.467908 Z M 13.279923 162.191435 C 13.026019 165.473101 11.519773 160.954358 13.279923 162.191435 L 13.279923 162.191435 Z M 15.971695 164.218849 C 15.532611 168.113324 13.659826 163.728225 15.971695 164.218849 L 15.971695 164.218849 Z M 30.812708 155.360825 C 37.091596 157.821596 19.379363 160.461828 29.529820 155.822816 L 30.812708 155.360825 L 30.812708 155.360825 Z M 229.503592 32.629438 C 233.522156 36.311998 224.402588 33.769145 229.503592 32.629438 L 229.503592 32.629438 Z M 253.508082 20.190008 C 255.119316 24.947385 249.451322 19.563835 253.508082 20.190008 L 253.508082 20.190008 Z M 32.332318 163.138325 C 32.996670 167.746789 27.351587 162.221974 32.332318 163.138325 L 32.332318 163.138325 Z M 11.206687 177.292074 C 10.072707 183.794328 10.229250 195.212399 21.080333 191.356102 C 6.598222 188.477244 31.110520 173.347962 28.015939 185.294845 C 34.107740 184.995122 39.932273 188.895327 36.732694 182.982978 C 48.738755 184.302137 57.054611 194.712225 68.650224 193.249887 C 77.680066 194.450686 87.553716 195.353668 97.286084 198.992333 C 105.286949 199.566959 112.989997 208.180628 108.606803 213.289262 C 97.696532 214.213247 86.270822 212.848270 74.213223 210.446677 C 60.849815 207.672815 48.710121 202.394274 35.226448 200.126310 C 22.078768 198.358525 37.866676 195.263942 34.100103 194.570956 C 27.246589 192.192272 42.280414 190.588660 33.212393 188.076342 C 27.613126 189.141596 21.780956 191.065925 24.174914 196.972549 C 11.586590 195.330759 0.519784 190.111395 10.467882 177.299714 L 11.206687 177.292074 L 11.206687 177.292074 Z M 41.551154 192.743988 C 44.496830 203.616067 57.360059 183.794328 46.382979 191.296920 C 45.077185 192.281993 42.914222 193.079979 41.551154 192.743988 L 41.551154 192.743988 Z M 42.123875 198.016805 C 46.382979 201.185840 44.384199 196.233745 42.123875 198.016805 L 42.123875 198.016805 Z M 47.530325 197.927078 C 47.919769 202.930716 59.918195 195.279216 49.508107 196.128745 L 47.530325 197.927078 L 47.530325 197.927078 Z M 54.927921 200.901392 C 57.634966 204.064698 55.712543 198.098891 54.927921 200.901392 L 54.927921 200.901392 Z M 56.823616 202.169003 C 61.327080 207.575454 82.303809 205.622487 66.949256 202.699721 C 62.833326 205.801939 59.679565 200.872753 56.823616 202.169003 L 56.823616 202.169003 Z M 84.205229 206.389929 C 83.527512 221.164127 97.814896 201.147657 84.205229 206.389929 L 84.205229 206.389929 Z M 91.976995 206.435747 C 94.817674 213.877252 103.005621 209.425331 93.296154 207.934359 C 93.504249 207.136372 93.005985 204.085697 91.976995 206.435747 L 91.976995 206.435747 Z M 29.268281 166.956442 C 37.754040 172.154807 20.259438 171.467546 29.268281 166.956442 L 29.268281 166.956442 Z M 35.547169 165.219197 C 38.523388 168.380593 29.073556 166.502082 35.547169 165.219197 L 35.547169 165.219197 Z M 17.054130 178.336334 C 21.901226 182.064721 11.311685 179.752854 17.054130 178.336334 L 17.054130 178.336334 Z M 267.677093 21.547354 C 267.818375 25.873280 263.969718 19.602013 267.677093 21.547354 L 267.677093 21.547354 Z M 242.210273 38.931227 C 242.933807 43.904330 238.936246 38.497879 242.210273 38.931227 L 242.210273 38.931227 Z M 274.679516 19.869282 C 281.458591 19.846382 295.222879 21.980702 280.473514 21.973063 C 278.154007 21.614176 266.984116 21.688619 274.679516 19.869282 L 274.679516 19.869282 Z M 41.066255 168.269868 C 46.554797 168.642136 49.649376 174.317761 39.999090 173.997044 C 25.047355 175.539559 53.190680 168.873132 38.082397 170.782191 C 36.054980 169.440123 40.945985 167.895693 41.066255 168.269868 L 41.066255 168.269868 Z M 45.898080 165.822461 C 45.323454 169.342762 44.197107 163.951581 45.898080 165.822461 L 45.898080 165.822461 Z M 51.632887 181.110192 C 54.011575 184.063502 48.335946 181.900539 51.632887 181.110192 L 51.632887 181.110192 Z M 33.376571 211.618837 C 43.175765 214.944416 56.569712 218.688077 61.193446 209.977047 C 56.487620 215.637402 59.292026 221.215670 63.736313 212.930362 C 70.022836 204.555327 73.168967 216.740840 69.081671 219.552881 C 73.743593 213.766526 79.037404 211.028938 72.199164 219.186341 C 79.634943 228.128367 57.321880 218.016091 52.251420 218.121087 C 49.813554 217.025288 27.061409 212.319463 33.376571 211.618837 L 33.376571 211.618837 Z M 39.119017 222.609281 C 44.704920 226.822572 58.440587 220.096962 49.626467 226.801573 C 48.761664 227.561378 30.327806 221.715844 39.119017 222.609281 L 39.119017 222.609281 Z M 59.484843 221.767387 C 66.017636 221.603209 56.667073 230.552871 64.452207 226.496123 C 63.176957 230.671231 55.384187 231.453945 51.573709 233.124370 C 49.418381 229.306256 55.956903 221.715844 59.484843 221.767387 L 59.484843 221.767387 Z M 42.690861 240.254699 C 44.951185 243.318737 38.723840 238.695001 42.690861 240.254699 L 42.690861 240.254699 Z M 51.014353 238.263554 C 61.550441 239.657165 48.328311 242.797564 48.887663 238.374279 L 51.014353 238.263554 L 51.014353 238.263554 Z M 35.472717 250.418522 C 28.052210 260.105080 49.426015 248.792005 41.885240 258.934827 C 35.539534 263.982375 29.447731 253.243927 35.472717 250.418522 L 35.472717 250.418522 Z M 130.664047 199.148876 C 134.065992 205.175771 116.622928 207.277642 128.375089 201.283201 C 129.455614 200.924296 129.211254 198.732699 130.664047 199.148876 L 130.664047 199.148876 Z" transform="scale(1.000000,1.000000) translate(-1.000000,114.000000)" fill="#000000" opacity="1.000000"></path>
        <path d="M 61.591212 88.690503 C 60.839479 85.717838 60.372599 80.731090 60.197666 73.731440 C 60.197666 72.355622 59.578310 71.667713 58.337240 71.667713 C 57.094983 71.667713 56.230962 72.268156 55.741625 73.464315 C 54.411904 76.700559 53.151918 78.958129 51.951033 80.246481 C 50.533847 81.751134 48.649781 82.661254 46.300014 82.970931 C 43.774135 83.371619 37.481308 83.570192 27.420346 83.570192 C 25.116678 83.570192 23.607297 83.325523 22.900477 82.836186 C 22.457237 82.527690 22.236208 81.862239 22.236208 80.842195 L 22.236208 50.724319 C 22.236208 49.704273 22.878021 49.219665 24.160462 49.261032 C 28.108255 49.307129 33.824280 49.575437 41.313268 50.060049 C 42.776550 50.239706 43.764682 50.714861 44.272930 51.491417 C 44.785906 52.266795 45.284701 54.270239 45.769309 57.507666 C 46.077806 59.280628 47.121487 59.968537 48.894450 59.566664 C 50.400282 59.256988 51.046824 58.569079 50.824612 57.507666 C 49.582359 51.477235 49.180486 43.632474 49.623726 33.969838 C 49.671006 32.819778 48.940546 32.196876 47.431163 32.108229 C 46.188910 31.974664 45.413537 32.640117 45.103857 34.103398 C 43.954979 39.643314 41.812058 42.602975 38.690468 42.982387 C 35.565328 43.355892 30.476930 43.545006 23.431184 43.545006 C 22.633352 43.545006 22.236208 43.258970 22.236208 42.682165 L 22.236208 12.762858 C 22.236208 10.546655 23.052953 9.037281 24.692350 8.242993 C 25.980702 7.577545 28.750066 6.978283 33.002808 6.446391 C 35.177641 6.225367 36.127949 5.269149 35.865550 3.588380 C 35.597242 2.125094 33.649347 1.548288 30.011232 1.857973 C 19.507031 2.701899 10.840797 2.655802 4.017262 1.723225 C 2.109556 1.460829 1.159249 2.236202 1.159249 4.050527 C 1.159249 5.205321 2.109556 5.869586 4.017262 6.045706 C 8.361016 6.535042 10.531120 10.348087 10.531120 17.481299 L 10.531120 74.396892 C 10.531120 77.318732 10.009870 79.568028 8.970914 81.142417 C 7.927232 82.716806 5.987612 84.148177 3.153239 85.431801 C 1.380278 86.229633 0.716008 87.314685 1.159249 88.690503 C 1.380278 89.530886 1.736052 89.997766 2.220661 90.085232 C 2.663901 90.218795 3.841147 90.131329 5.742944 89.818106 C 8.537130 89.374866 15.120725 89.152654 25.490182 89.152654 C 37.725976 89.152654 48.294004 89.420963 57.206091 89.951669 C 60.174027 90.131329 61.660948 89.886660 61.660948 89.222391 C 61.660948 89.041549 61.638492 88.866617 61.591212 88.690503 L 61.591212 88.690503 Z" transform="scale(1.000000,1.000000) translate(-1.000000,0.000000)" fill="#000000" opacity="1.000000"></path>
        <path d="M 32.707786 4.290588 C 32.707786 2.517635 31.710205 1.742253 29.716210 1.964470 C 23.603044 2.541275 16.021858 2.453807 6.980945 1.700890 C 5.161886 1.521229 4.044923 1.567325 3.620589 1.829722 C 3.199805 2.098034 2.991780 2.827311 2.991780 4.028192 C 2.991780 5.089610 4.197395 5.985540 6.612165 6.719550 C 9.031669 7.448826 10.236100 9.633115 10.236100 13.266499 L 10.236100 73.436068 C 10.236100 77.028087 9.714849 79.665071 8.675896 81.350566 C 7.632211 83.034879 5.803695 84.342142 3.190356 85.269992 C 1.814534 85.759328 1.126625 86.447238 1.126625 87.333718 C 1.126625 88.663439 2.124214 89.661025 4.118201 90.325294 C 7.133416 91.300423 10.259740 92.805075 13.495980 94.846344 C 16.155423 96.443191 17.840917 97.237478 18.546554 97.237478 C 20.185960 97.237478 21.008612 96.111056 21.008612 93.848758 C 21.008612 94.023691 20.919961 91.807489 20.740300 87.200155 C 20.611468 82.813849 20.565372 78.492552 20.611468 74.235083 L 20.873864 14.864533 C 20.873864 12.158993 21.539313 10.195738 22.869034 8.977116 C 24.198756 7.758502 26.483512 6.950032 29.716210 6.552888 C 31.710205 6.331863 32.707786 5.578947 32.707786 4.290588 L 32.707786 4.290588 Z" transform="scale(1.000000,1.000000) translate(71.000000,0.000000)" fill="#000000" opacity="1.000000"></path>
        <path d="M 52.840710 9.211200 C 52.840710 8.278623 51.145758 6.874441 47.757038 4.991554 C 44.363603 3.107483 41.648597 2.165457 39.612055 2.165457 C 37.880473 2.165457 36.353359 3.005833 35.023628 4.691335 C 33.693915 6.375646 32.760155 7.216031 32.229454 7.216031 C 31.832310 7.216031 29.727207 6.307093 25.912979 4.492759 C 22.104658 2.673700 18.267973 1.763579 14.412373 1.763579 C 10.778989 1.763579 7.740134 2.829722 5.302898 4.953732 C 2.643463 7.304674 1.313742 10.494826 1.313742 14.530087 C 1.313742 22.198732 10.091076 27.693726 27.644569 31.017438 C 30.655060 31.594239 32.188083 32.814036 32.229454 34.674466 L 32.364194 38.930752 C 32.631323 46.198712 29.417531 49.832100 22.722835 49.832100 C 20.816308 49.832100 19.011432 48.128874 17.302298 44.716514 C 15.599081 41.299430 13.147663 39.462640 9.956336 39.194331 C 6.322944 38.843288 4.503885 40.371577 4.503885 43.783937 C 4.503885 45.912671 7.209425 48.391270 12.615771 51.231554 C 18.290430 54.199494 23.744056 55.686416 28.974291 55.686416 C 37.969116 55.686416 42.423970 51.406486 42.336510 42.851359 L 42.068197 15.462665 C 42.026834 12.581005 43.246622 11.141367 45.725230 11.141367 C 46.214558 11.141367 47.147136 11.251283 48.518229 11.473500 C 49.895239 11.694524 50.693060 11.805632 50.915276 11.805632 C 52.198893 11.805632 52.840710 10.938066 52.840710 9.211200 L 52.840710 9.211200 Z M 32.364194 24.368830 C 32.410290 25.477527 32.151444 26.211533 31.597095 26.562576 C 31.042746 26.917169 30.170448 26.986906 28.974291 26.764694 C 18.290430 24.858167 12.949095 21.377254 12.949095 16.325497 C 12.949095 11.228827 15.718455 8.680492 21.259549 8.680492 C 23.475752 8.680492 25.761691 9.100092 28.106725 9.940477 C 30.858361 10.919151 32.229454 12.091668 32.229454 13.467486 L 32.364194 24.368830 Z" transform="scale(1.000000,1.000000) translate(111.000000,-1.000000)" fill="#000000" opacity="1.000000"></path>
        <path d="M 41.270866 16.860939 C 41.270866 12.161404 39.460073 8.425187 35.850338 5.655818 C 32.239402 2.885276 27.308202 1.500000 21.056738 1.500000 C 16.892645 1.500000 12.722653 1.943241 8.558543 2.829722 C 4.966539 3.628734 2.883901 4.358011 2.307096 5.023468 C 1.951324 5.646369 1.776387 8.679308 1.776387 14.132943 C 1.776387 16.482702 2.307096 17.701315 3.373230 17.788783 C 4.435831 17.923531 5.344760 17.345543 6.097685 16.061918 C 9.421393 10.253703 14.786376 7.349595 22.187900 7.349595 C 28.434631 7.349595 31.560937 9.524426 31.560937 13.869363 C 31.560937 15.771157 30.854126 17.369183 29.432203 18.652808 C 27.880274 20.116094 24.870975 21.824045 20.392473 23.773118 C 13.918810 26.653590 9.597513 29.179469 7.427398 31.354299 C 5.076464 33.657966 3.903938 36.760650 3.903938 40.662346 C 3.903938 45.450520 5.741912 49.171376 9.421393 51.830815 C 12.833744 54.402790 17.399723 55.686416 23.115745 55.686416 C 26.707765 55.686416 29.986560 55.400380 32.959229 54.822391 C 36.150547 54.245590 37.812401 53.538770 37.945975 52.694840 C 38.297014 50.215058 39.031024 46.623041 40.139721 41.922328 C 40.273277 41.350256 39.649192 40.883375 38.278099 40.528782 C 36.814812 40.219106 35.840872 40.463774 35.351543 41.258058 C 31.851715 46.978814 27.419310 49.836825 22.054327 49.836825 C 15.982533 49.836825 12.944852 47.887751 12.944852 43.986055 C 12.944852 41.812407 13.766321 40.085541 15.405727 38.801916 C 16.869014 37.693227 20.303830 35.961633 25.711359 33.611870 C 31.384835 31.174638 35.240435 28.980896 37.281693 27.033002 C 39.941136 24.507128 41.270866 21.113675 41.270866 16.860939 L 41.270866 16.860939 Z" transform="scale(1.000000,1.000000) translate(172.000000,-1.000000)" fill="#000000" opacity="1.000000"></path>
        <path d="M 68.489167 5.225585 C 68.489167 3.674831 67.445481 2.852178 65.362843 2.764710 C 62.260168 2.718614 58.201267 2.497589 53.196789 2.100445 C 50.713466 1.611108 48.940504 1.919601 47.877903 3.028298 C 40.873531 10.563379 34.931743 18.454240 30.056106 26.699686 C 29.658970 27.406506 29.150709 27.762283 28.527808 27.762283 C 27.774900 27.762283 26.468818 27.096830 24.608379 25.767109 C 22.521025 24.617053 21.482073 22.974105 21.482073 20.850095 C 21.482073 19.340713 21.523436 17.170615 21.615629 14.330327 C 21.704272 11.495956 22.409917 9.635526 23.739630 8.749045 C 24.672207 8.124968 26.824590 7.640356 30.189662 7.284584 C 32.272300 7.017454 33.315985 6.242081 33.315985 4.958456 C 33.315985 3.937236 33.149332 3.304876 32.817191 3.064937 C 32.485067 2.820264 31.606852 2.764710 30.189662 2.898275 C 25.757274 3.295419 18.268272 3.074394 7.719159 2.234010 C 5.059716 2.011793 3.618895 2.345109 3.396679 3.231590 C 3.309219 3.540092 3.263123 3.983332 3.263123 4.561312 C 3.263123 5.932405 4.616484 6.976091 7.322024 7.681728 C 9.759251 8.305804 10.977873 11.163824 10.977873 16.260494 L 10.977873 74.371061 C 10.977873 78.004447 10.623267 80.530326 9.911722 81.947513 C 8.937781 83.766571 6.896507 85.184939 3.793831 86.204983 C 2.335278 86.689592 1.601269 87.377501 1.601269 88.263981 C 1.601269 89.552333 2.644954 90.549919 4.726409 91.255558 C 8.051300 92.364249 11.217804 93.892541 14.233019 95.845162 C 16.671430 97.438463 18.180812 98.237478 18.752884 98.237478 C 20.573126 98.237478 21.482073 97.087417 21.482073 94.779022 C 21.482073 95.092245 21.459607 92.894956 21.412328 88.198973 C 21.370965 84.962729 21.348499 80.617793 21.348499 75.165347 L 21.482073 33.546862 C 21.482073 32.393256 21.791749 31.819996 22.409917 31.819996 C 23.075365 31.819996 24.095402 32.393256 25.471229 33.546862 C 29.150709 36.428513 33.671758 40.195466 39.032007 44.850079 C 40.098158 45.957589 40.628867 46.844070 40.628867 47.509518 C 40.628867 48.704496 38.833440 49.549605 35.246152 50.034218 C 33.694223 50.215058 32.960213 51.077899 33.047690 52.629833 C 33.181246 54.180583 33.957802 54.846031 35.374992 54.623819 C 38.569860 54.180583 43.224482 53.935910 49.336456 53.889814 C 53.593942 53.848446 57.827763 53.824806 62.039135 53.824806 C 63.410229 53.778710 64.098142 52.961965 64.098142 51.363935 C 64.098142 49.859285 63.013093 49.037812 60.842978 48.903068 C 57.425894 48.774232 54.212111 47.998855 51.202794 46.576941 C 46.991422 44.673964 42.489289 41.326616 37.702294 36.538438 C 37.351255 36.271313 37.170402 35.939176 37.170402 35.542032 C 37.170402 34.922680 37.923327 33.435754 39.433893 31.085991 C 44.973795 22.664429 50.205222 16.306590 55.122223 12.004208 C 58.271012 9.302210 61.216482 7.950032 63.963385 7.950032 C 66.004660 7.950032 67.269379 7.807018 67.753974 7.516249 C 68.244503 7.229030 68.489167 6.463114 68.489167 5.225585 L 68.489167 5.225585 Z" transform="scale(1.000000,1.000000) translate(223.000000,-1.000000)" fill="#000000" opacity="1.000000"></path>
    </g>
</svg>