<?xml version="1.0" encoding="UTF-8" standalone="yes"?>
<!DOCTYPE svg PUBLIC "-//W3C//DTD SVG 1.1//EN" "http://www.w3.org/Graphics/SVG/1.1/DTD/svg11.dtd">

<svg width="266" height="376" viewBox="0 0 266 376" xmlns="http://www.w3.org/2000/svg" xmlns:xlink="http://www.w3.org/1999/xlink" version="1.1" baseProfile="full">
    <g transform="scale(1,-1) translate(0,-376)">
        <path d="M 266.837318 302.803429 L 242.633859 31.661378 L 133.837531 1.500000 L 25.341132 31.619723 L 1.162673 302.803429 L 266.837327 302.803429 Z" transform="scale(1.000000,1.000000) translate(-1.000000,-1.000000)" fill="#da361d" opacity="1.000000"></path>
        <path d="M 2.000000 1.554753 L 89.912889 25.926921 L 110.595334 257.630715 L 2.000000 257.630715 L 2.000000 1.554753 Z" transform="scale(1.000000,1.000000) translate(131.000000,22.000000)" fill="#ea4e1f" opacity="1.000000"></path>
        <path d="M 37.948999 156.110514 L 85.000000 156.110514 L 85.000000 189.370094 L 1.600591 189.370094 L 2.396230 180.447275 L 10.571315 88.792590 L 85.000000 88.792590 L 85.000000 122.052170 L 40.988879 122.052170 L 37.948997 156.110511 Z M 45.445081 72.162281 L 12.057406 72.162281 L 16.716684 19.939627 L 84.846906 1.027583 L 84.999993 1.069239 L 84.999993 35.673304 L 84.854196 35.634771 L 47.813248 45.636494 L 45.445077 72.162303 Z" transform="scale(1.000000,1.000000) translate(48.000000,57.000000)" fill="#e6e6e6" opacity="1.000000"></path>
        <path d="M 1.880591 52.500000 L 18.782710 52.500000 L 18.782710 35.800956 L 34.244556 35.800956 L 34.244556 52.500000 L 51.147717 52.500000 L 51.147717 1.931110 L 34.245599 1.931110 L 34.245599 18.864472 L 18.783751 18.864472 L 18.783751 1.931110 L 1.881632 1.931110 L 1.881632 52.500000 Z M 73.373536 35.730140 L 58.495919 35.730140 L 58.495919 52.500000 L 105.165762 52.500000 L 105.165762 35.730140 L 90.278776 35.730140 L 90.278776 1.931106 L 73.376657 1.931106 L 73.376657 35.730140 L 73.375616 35.730140 Z M 112.572289 52.500000 L 130.196107 52.500000 L 141.037207 34.731426 L 151.867895 52.500000 L 169.499003 52.500000 L 169.499003 1.931110 L 152.665618 1.931110 L 152.665618 26.995817 L 141.037209 9.015837 L 140.745614 9.015837 L 129.109919 26.995817 L 129.109919 1.931108 L 112.572294 1.931108 L 112.572294 52.500000 Z M 177.910493 52.500000 L 194.817819 52.500000 L 194.817819 18.645775 L 218.587010 18.645775 L 218.587010 1.931110 L 177.909450 1.931110 L 177.909450 52.500000 Z" transform="scale(1.000000,1.000000) translate(23.000000,323.000000)" fill="#fffefe" opacity="1.000000"></path>
        <path d="M 1.885444 88.792601 L 42.841059 88.792601 L 38.979503 45.657312 L 1.884403 35.645175 L 1.884403 1.043213 L 70.068780 19.939637 L 70.568658 25.559097 L 78.385497 113.121032 L 79.196758 122.052183 L 1.885444 122.052183 L 1.885444 88.792603 Z M 1.885444 156.191747 L 1.885444 156.110517 L 82.223098 156.110517 L 82.889602 163.585774 L 84.405898 180.447278 L 85.200496 189.370097 L 1.885444 189.370097 L 1.885444 156.190705 Z" transform="scale(1.000000,1.000000) translate(131.000000,57.000000)" fill="#fffefe" opacity="1.000000"></path>
    </g>
</svg>