<?xml version="1.0" encoding="UTF-8" standalone="yes"?>
<!DOCTYPE svg PUBLIC "-//W3C//DTD SVG 1.1//EN" "http://www.w3.org/Graphics/SVG/1.1/DTD/svg11.dtd">

<svg width="362" height="376" viewBox="0 0 362 376" xmlns="http://www.w3.org/2000/svg" xmlns:xlink="http://www.w3.org/1999/xlink" version="1.1" baseProfile="full">
    <g transform="scale(1,-1) translate(0,-376)">
        <path d="M 10.249752 29.562731 C 6.011538 29.487207 3.148728 29.034075 1.661961 28.600780 L 1.661961 2.146186 C 3.424577 1.736573 5.601925 1.595128 8.605540 1.575288 C 19.821895 1.504245 26.871076 7.042980 26.871076 16.421837 C 26.870433 24.854095 20.807527 29.773294 10.249752 29.562731 Z" transform="scale(1.000000,1.000000) translate(155.000000,184.000000)" opacity="1.000000"></path>
        <path d="M 338.264776 345.152466 L 224.731588 345.152466 C 224.227895 345.152466 223.737630 345.103180 223.240987 345.073090 L 223.240987 376.500000 L 1.653193 346.927216 L 1.653193 31.838238 L 223.240987 1.500000 L 223.240987 33.874142 C 223.737646 33.840862 224.227895 33.801182 224.731588 33.801182 L 338.264776 33.801182 C 351.549047 33.801182 362.346807 44.609840 362.346807 57.883221 L 362.346807 321.072968 C 362.346807 334.348907 351.549016 345.152466 338.264776 345.152466 Z M 57.270307 174.322098 C 57.270307 151.169373 47.123426 143.610733 31.250926 144.422913 C 27.575290 144.611084 22.775779 145.556381 19.680000 146.869064 L 21.434936 161.073685 C 23.612285 160.183411 26.419414 159.501144 29.564472 159.394272 C 36.346128 159.148499 40.631063 162.437561 40.631063 174.885315 L 40.631063 225.148651 L 57.270948 225.697800 L 57.270948 174.322098 Z M 90.886091 141.494186 C 81.792684 141.960754 72.985372 144.860046 68.635793 147.628784 L 72.177022 162.898376 C 76.908056 160.167419 84.252286 157.325089 91.959409 157.049240 C 100.383993 156.746506 104.894216 160.257660 104.894216 165.825195 C 104.894216 171.133514 100.990095 174.237625 91.247068 178.041260 C 78.070333 183.039810 69.663663 190.696381 69.663663 202.662842 C 69.663663 216.706161 80.746251 227.838669 99.661413 228.490845 C 108.954503 228.810226 115.903844 227.004089 120.944005 224.850418 L 116.663549 208.994553 C 113.291921 210.604202 107.357015 212.912125 99.300435 212.754028 C 91.362905 212.606186 87.567586 208.801270 87.567586 204.452332 C 87.567586 199.110077 92.084852 196.763123 102.579259 192.634354 C 117.286283 186.984894 124.363630 178.951370 124.363630 166.718658 C 124.363622 152.161392 113.416715 140.344070 90.886091 141.494186 Z M 195.624120 180.049637 C 188.131399 173.441437 177.231222 170.652222 164.746343 170.908234 C 162.011541 170.965195 159.558980 171.150803 157.661962 171.463135 L 157.661962 139.424362 L 137.605001 140.424713 L 137.605001 227.178802 C 143.760076 228.428757 152.550756 229.511673 165.156591 229.935364 C 178.212362 230.378906 187.708990 228.238678 194.173192 223.498047 C 200.435796 218.970551 204.689367 211.295425 204.689367 202.140579 C 204.688726 192.985092 201.455984 185.240845 195.624120 180.049637 Z M 348.585088 57.883224 C 348.585088 52.192165 343.956457 47.561619 338.264776 47.561619 L 224.731588 47.561619 C 224.221486 47.561619 223.731237 47.632660 223.240987 47.709461 L 223.240987 131.837555 C 230.967306 130.769363 241.711324 130.144058 256.502202 130.144058 C 297.597875 130.144058 315.636205 137.682861 318.596319 140.861832 C 321.560247 144.067062 317.675969 146.580414 317.675969 146.580414 C 317.675969 146.580414 319.044317 144.977814 317.233709 143.153107 C 315.405797 141.336090 298.732000 136.774033 272.014348 135.406311 C 253.458898 134.445633 233.811559 136.031601 223.235219 138.231995 L 223.235219 145.901993 C 226.803335 146.883148 230.242803 147.487961 230.242803 147.487961 C 229.639272 147.413727 226.775808 147.306839 223.235219 146.984268 L 223.235219 184.516327 C 229.165655 181.589523 241.451482 179.889633 260.044073 180.541168 C 292.545568 181.704086 296.370336 187.825241 299.763067 190.766769 C 280.934972 185.638290 230.942983 185.967255 230.583303 189.738892 C 230.250493 193.505417 245.994344 196.590958 245.994344 196.590958 C 245.994344 196.590958 230.737539 196.577515 223.242269 193.564301 L 223.242269 331.236481 C 223.732519 331.308167 224.222783 331.391388 224.732870 331.391388 L 338.266057 331.391388 C 343.957769 331.391388 348.586370 326.760193 348.586370 321.070404 L 348.586370 57.883224 Z" transform="scale(1.000000,1.000000) translate(-1.000000,-1.000000)" opacity="1.000000"></path>
        <path d="M 41.017942 64.307243 C 49.221723 77.667023 39.983030 90.670319 39.983030 90.670319 C 39.983030 90.670319 42.038774 81.081535 36.563402 71.154182 C 31.086748 61.224266 10.858271 55.393684 2.993062 38.280823 C -4.868306 21.154522 20.459854 1.631346 20.459854 1.631346 C 20.459854 1.631346 11.210282 19.449509 11.549492 32.463680 C 11.802313 41.766376 32.770006 50.958344 41.017942 64.307243 Z" transform="scale(1.000000,1.000000) translate(242.000000,196.000000)" fill="#f6000a" opacity="1.000000"></path>
        <path d="M 33.061902 61.740578 C 33.061902 61.740578 1.554346 49.758759 1.554346 36.066166 C 1.554346 22.361412 10.114616 17.913271 11.486180 13.465132 C 12.857103 9.006751 9.094424 1.475633 9.094424 1.475633 C 9.094424 1.475633 21.423772 10.031423 19.354589 19.974777 C 17.298204 29.907249 7.710060 32.986385 13.193114 42.915020 C 16.854671 49.565464 33.061902 61.740578 33.061902 61.740578 Z" transform="scale(1.000000,1.000000) translate(264.000000,190.000000)" fill="#f6000a" opacity="1.000000"></path>
        <path d="M 3.560036 30.896545 C 3.560036 30.896545 17.602720 30.896545 18.967243 22.335634 C 20.331766 13.779845 1.167639 1.114485 1.167639 1.114485 C 1.167639 1.114485 31.350992 7.191476 28.541944 22.670364 C 25.122318 41.502312 3.560036 30.896545 3.560036 30.896545 Z" transform="scale(1.000000,1.000000) translate(300.000000,164.000000)" fill="#000057" opacity="1.000000"></path>
        <path d="M 8.425749 10.307024 C 7.079146 12.703260 10.838625 14.066503 10.838625 14.066503 C -6.303037 9.947333 3.061099 2.773987 23.138534 1.386423 C 40.348035 0.217746 59.581285 6.533465 59.581285 6.533465 L 65.508512 11.321456 C 65.508512 11.321456 51.941362 9.436597 41.298467 8.240399 C 27.038818 6.638432 9.799874 7.905034 8.425749 10.307024 Z" transform="scale(1.000000,1.000000) translate(228.000000,162.000000)" fill="#000057" opacity="1.000000"></path>
        <path d="M 9.271050 8.854024 C 8.572148 10.457275 9.946912 11.360343 9.946912 11.360343 C 9.946912 11.360343 2.182187 11.145937 1.731612 7.033167 C 1.275918 2.944718 4.145128 0.871692 23.355335 1.320986 C 46.225175 1.866284 50.037774 4.587010 52.393049 6.569792 L 57.964425 10.769605 C 43.016115 8.830343 41.860879 8.302967 33.387651 8.062319 C 24.870918 7.813347 9.946912 7.272529 9.271050 8.854024 Z" transform="scale(1.000000,1.000000) translate(233.000000,147.000000)" fill="#000057" opacity="1.000000"></path>
        <path d="M 74.617574 7.409892 C 56.576684 3.751536 1.812715 6.052409 1.812715 6.052409 C 1.812715 6.052409 37.404878 -2.389457 78.041677 4.682126 C 97.464376 8.060792 98.599767 17.471649 98.599767 17.471649 C 98.599767 17.471649 92.649511 11.068250 74.617574 7.409892 Z" transform="scale(1.000000,1.000000) translate(227.000000,119.000000)" fill="#000057" opacity="1.000000"></path>
    </g>
</svg>