<?xml version="1.0" encoding="UTF-8" standalone="yes"?>
<!DOCTYPE svg PUBLIC "-//W3C//DTD SVG 1.1//EN" "http://www.w3.org/Graphics/SVG/1.1/DTD/svg11.dtd">

<svg width="376" height="376" viewBox="0 0 376 376" xmlns="http://www.w3.org/2000/svg" xmlns:xlink="http://www.w3.org/1999/xlink" version="1.1" baseProfile="full">
    <g transform="scale(1,-1) translate(0,-376)">
        <path d="M 376.500000 189.000000 C 376.500000 85.446609 292.553391 1.500000 189.000000 1.500000 C 85.446609 1.500000 1.500000 85.446609 1.500000 189.000000 C 1.500000 292.553391 85.446609 376.500000 189.000000 376.500000 C 292.553391 376.500000 376.500000 292.553391 376.500000 189.000000 Z" transform="scale(1.000000,1.000000) translate(-1.000000,-1.000000)" fill="#ef3937" opacity="1.000000"></path>
        <path d="M 143.975590 1.402339 C 141.558598 2.208003 140.020512 3.965816 138.702153 6.089839 C 136.871098 9.166011 134.893559 12.168941 133.135747 15.318355 C 126.470708 27.256831 119.805668 39.048825 113.140630 50.987301 C 112.920904 51.280270 112.774419 51.573239 112.554693 51.939450 C 111.456060 51.646481 110.430669 51.353512 109.332036 51.133785 C 94.610356 47.325192 80.035161 43.516598 65.313483 39.781246 C 63.555670 39.341793 61.871100 38.829098 60.113288 38.829098 C 56.597662 38.829098 53.887702 40.367184 52.056647 43.370113 C 51.617194 44.102535 51.250983 44.834957 50.958014 45.713864 C 37.481452 74.864254 23.931646 104.087885 10.528326 133.165036 C 8.111334 138.365232 5.694342 143.638669 3.423834 148.765622 C 2.837897 150.083981 2.471686 151.475583 1.958990 152.867184 C 1.885748 153.086911 1.739264 153.233395 1.666022 153.453122 C 1.666022 154.039059 1.666022 154.551755 1.666022 155.137692 C 1.739264 155.430661 1.958990 155.577145 2.032232 155.870114 C 2.325201 156.675778 2.837897 157.261716 3.716803 157.627927 C 4.375982 157.920895 5.035162 158.067380 5.694342 158.067380 C 9.209967 158.433591 12.725592 158.726559 16.241217 159.019528 C 21.075201 159.385739 25.982428 159.751950 30.743169 160.118161 C 36.968755 160.557614 43.194341 161.143552 49.419927 161.583005 C 50.445318 161.656247 51.470708 161.802731 52.349614 161.949216 C 53.375005 161.949216 54.400396 161.949216 55.499029 161.949216 C 55.718755 161.875973 55.865240 161.875973 56.084966 161.729489 C 57.549810 161.509762 58.648443 160.777341 59.527349 159.532223 C 60.259771 158.433591 60.992193 157.334958 61.724614 156.236325 C 80.035161 125.547847 98.418949 94.932616 116.729496 64.244139 C 116.949223 63.951170 117.095707 63.584959 117.388676 63.218748 C 140.972661 68.858396 164.556646 74.498045 188.287116 80.210936 C 187.994147 80.577147 187.920905 80.870116 187.701178 81.016600 C 180.083991 91.709960 172.613287 102.403319 165.069342 113.096678 C 164.776374 113.462889 164.483405 113.902342 164.336921 114.415037 C 163.750983 115.513670 164.043952 116.465818 165.142585 116.978514 C 165.948249 117.344725 166.827155 117.710935 167.706061 117.930662 C 172.027350 118.663084 176.421881 119.395506 180.669929 120.127928 C 186.382820 121.080076 192.168952 122.105467 197.808601 122.984373 C 199.273444 123.277342 200.665046 123.423826 202.129890 123.643553 C 203.448249 123.863279 204.620124 123.423826 205.718757 122.691404 C 206.817390 121.885740 207.769538 120.860350 208.648444 119.834959 C 214.507819 112.657224 220.293952 105.406247 226.153327 98.228514 C 229.229499 94.419920 232.378913 90.611326 235.381843 86.875974 C 235.674812 86.583006 235.821296 86.216795 236.041023 85.923826 C 236.041023 85.484373 236.041023 84.898435 236.041023 84.458982 C 235.455085 83.506834 234.502937 83.287107 233.550788 82.994139 C 223.296882 80.210935 213.042976 77.574217 202.789069 74.791014 C 202.496101 74.717772 202.129890 74.571287 201.763679 74.498045 C 202.056647 74.131834 202.129890 73.912107 202.349616 73.692381 C 207.037116 67.393552 211.651374 61.241209 216.412117 54.942381 C 221.099617 48.643552 225.713874 42.344724 230.401375 36.045897 C 230.767586 35.459959 231.133797 34.947264 231.426765 34.288084 C 232.012703 33.189451 231.719734 32.237303 230.694344 31.578123 C 230.035164 31.138670 229.375984 30.772459 228.643562 30.552733 C 226.299812 29.600584 224.029304 28.794920 221.685555 27.989256 C 202.642586 21.177733 183.599617 14.292966 164.556648 7.481444 C 159.942390 5.796873 155.328132 4.258787 150.567390 2.647459 C 149.395515 2.281248 148.077156 1.988280 146.905281 1.622069 C 145.953116 1.402339 145.000977 1.402339 143.975590 1.402339 Z M 51.470705 155.137698 C 48.541018 154.844729 45.538088 154.551760 42.535159 154.405276 C 39.385744 154.112307 36.309573 153.819338 33.233401 153.599612 C 29.351565 153.233401 25.396487 152.940432 21.514651 152.574221 C 18.951174 152.354494 16.314456 152.134768 13.750979 151.915041 C 13.091799 151.841799 12.945315 151.622073 13.018557 150.962893 C 13.091799 150.596682 13.238283 150.230471 13.384768 149.937502 C 13.677737 149.278323 13.970705 148.765627 14.336916 148.106448 C 26.275392 123.570315 38.213868 99.034182 50.005862 74.498049 C 53.887698 66.514651 57.696292 58.604494 61.504885 50.621097 C 61.724612 50.181644 61.944339 49.961918 62.457034 50.035160 C 63.116214 50.108402 63.775393 50.254886 64.288089 50.401371 C 77.032229 53.477542 89.703128 56.480472 102.447267 59.483402 C 103.765626 59.776370 105.157228 60.142581 106.402345 60.435550 C 107.354494 60.728519 107.574220 61.167972 107.208009 62.120120 C 106.988283 62.559573 106.841798 62.925784 106.548830 63.291995 C 89.043947 93.467777 71.685550 123.497071 54.253907 153.599615 C 53.228513 155.284180 53.228513 155.284180 51.470705 155.137698 Z M 122.442392 54.502925 C 122.662118 54.136714 122.735361 53.916988 122.881845 53.770503 C 128.082040 44.834957 133.355478 35.752925 138.628915 26.744135 C 140.679696 23.228510 142.803720 19.712885 144.927744 16.197260 C 145.367197 15.464838 145.953134 14.732417 146.465829 14.073237 C 147.125009 13.414057 147.930673 13.267573 148.809580 13.633784 C 149.175790 13.853510 149.542001 13.926752 149.908212 13.999995 C 165.362314 19.273432 180.816416 24.546869 196.197275 29.747065 C 203.228526 32.164057 210.259776 34.434565 217.291025 36.851557 C 217.657236 36.924799 218.096689 37.144526 218.462900 37.291010 C 219.195322 37.657221 219.268564 38.023432 218.829111 38.682612 C 218.536142 39.122065 218.169931 39.708002 217.876962 40.147455 C 215.093759 44.029291 212.237314 47.837885 209.454111 51.719721 C 204.839853 58.018550 200.298837 64.317378 195.684580 70.616205 C 195.318369 71.202142 194.952158 71.714838 194.512705 72.300775 C 194.073252 72.886713 193.487315 73.106439 192.754893 72.886713 C 192.168955 72.666986 191.729502 72.593744 191.216807 72.447260 C 183.746104 70.469721 176.275401 68.565424 168.731455 66.587885 C 153.643564 62.706049 138.555673 58.750971 123.541024 54.869135 C 123.174814 54.795889 122.808603 54.649419 122.442392 54.502925 Z M 195.977544 81.968746 C 196.197270 81.968746 196.343754 82.041988 196.563481 82.041988 C 205.425786 84.239253 214.434575 86.363277 223.296879 88.633785 C 223.663090 88.707027 224.029301 88.853511 224.395512 88.999996 C 225.201176 89.366206 225.420903 89.805660 224.761723 90.538081 C 224.688481 90.611324 224.541997 90.831050 224.468754 90.904292 C 217.876958 99.253901 211.431646 107.530269 204.839849 115.806636 C 204.766607 116.026363 204.546880 116.172847 204.473638 116.246089 C 203.814458 116.978511 203.082036 117.198238 202.056646 116.978511 C 194.073248 115.513667 186.163090 114.122066 178.179694 112.657222 C 177.227545 112.437495 176.202155 112.364253 175.323248 112.071284 C 174.517584 111.851558 174.371100 111.485347 174.737311 110.899409 C 174.957037 110.606441 175.103522 110.240230 175.396490 109.947261 C 182.061530 100.865230 188.653327 91.709957 195.245124 82.701167 C 195.538086 82.481450 195.684579 82.188486 195.977544 81.968746 Z" transform="scale(1.000000,1.000000) translate(69.000000,99.000000)" fill="#fffefe" opacity="1.000000"></path>
    </g>
</svg>