<?xml version="1.0" encoding="UTF-8" standalone="yes"?>
<!DOCTYPE svg PUBLIC "-//W3C//DTD SVG 1.1//EN" "http://www.w3.org/Graphics/SVG/1.1/DTD/svg11.dtd">

<svg width="376" height="376" viewBox="0 0 376 376" xmlns="http://www.w3.org/2000/svg" xmlns:xlink="http://www.w3.org/1999/xlink" version="1.1" baseProfile="full">
    <g transform="scale(1,-1) translate(0,-376)">
        <path d="M 12.486328 376.500000 L 365.513672 376.500000 C 371.581253 376.500000 376.500000 371.581253 376.500000 365.513672 L 376.500000 12.486328 C 376.500000 6.418747 371.581253 1.500000 365.513672 1.500000 L 12.486328 1.500000 C 6.418747 1.500000 1.500000 6.418747 1.500000 12.486328 L 1.500000 365.513672 C 1.500000 371.581253 6.418747 376.500000 12.486328 376.500000 Z" transform="scale(1.000000,1.000000) translate(-1.000000,-1.000000)" fill="#6365a3" opacity="1.000000"></path>
        <path d="M 66.025391 108.550781 L 23.544922 108.550781 C 23.403304 108.558813 23.120355 108.538327 22.981371 108.509979 C 22.842388 108.481631 22.574018 108.389666 22.446859 108.326812 C 22.319700 108.263958 22.083655 108.106595 21.976729 108.013392 C 21.869803 107.920189 21.681693 107.707834 21.602070 107.590445 C 21.522447 107.473055 21.394710 107.219751 21.347656 107.085938 L 1.572266 3.814453 C 1.572266 1.617188 3.769531 1.617188 3.769531 1.617188 L 25.742187 1.617188 C 27.939453 1.617188 27.939453 3.082031 27.939453 3.082031 L 33.066406 28.716797 L 52.841797 28.716797 C 83.603516 28.716797 98.984375 49.224609 102.646484 67.535156 C 106.308594 85.845703 103.378906 108.550781 66.025391 108.550781 Z M 75.546875 69.000000 C 72.617188 55.083984 63.095703 49.224609 49.912109 49.224609 L 36.728516 49.224609 L 44.785156 88.042969 L 57.968750 88.042969 C 77.744141 88.042969 77.011719 80.718750 75.546875 69.000000 Z" transform="scale(1.000000,1.000000) translate(48.000000,119.000000)" fill="#fffefe" opacity="1.000000"></path>
        <path d="M 58.916016 2.716797 C 55.986328 2.716797 56.718750 5.646484 56.718750 5.646484 L 65.507813 50.324219 C 65.507813 56.183594 69.902344 62.042969 52.324219 61.310547 L 39.140625 61.310547 L 28.154297 4.181641 C 28.154297 4.181641 28.154297 1.984375 25.224609 1.984375 L 3.984375 1.984375 C 1.787109 1.984375 1.787109 4.181641 1.787109 4.181641 L 22.294922 107.453125 C 22.294922 107.453125 22.294922 108.917969 25.224609 108.917969 L 47.197266 108.917969 C 49.394531 108.917969 48.662109 106.720703 48.662109 106.720703 L 43.535156 81.818359 L 62.578125 81.818359 C 88.945313 81.818359 95.537109 69.367188 93.339844 54.718750 L 83.818359 4.181641 C 83.818359 4.181641 83.818359 1.984375 80.156250 1.984375 Z" transform="scale(1.000000,1.000000) translate(143.000000,145.000000)" fill="#fffefe" opacity="1.000000"></path>
        <path d="M 66.074219 108.550781 L 23.593750 108.550781 C 23.452133 108.558813 23.169183 108.538327 23.030200 108.509979 C 22.891216 108.481631 22.622846 108.389666 22.495687 108.326812 C 22.368528 108.263958 22.132483 108.106595 22.025557 108.013392 C 21.918631 107.920189 21.730521 107.707834 21.650898 107.590445 C 21.571276 107.473055 21.443538 107.219751 21.396484 107.085938 L 1.621094 3.814453 C 1.621094 1.617188 3.818359 1.617188 3.818359 1.617188 L 25.791016 1.617188 C 27.988281 1.617188 27.988281 3.082031 27.988281 3.082031 L 33.115234 28.716797 L 52.890625 28.716797 C 83.652344 28.716797 99.033203 49.224609 102.695313 67.535156 C 106.357422 85.845703 103.427734 108.550781 66.074219 108.550781 Z M 75.595703 69.000000 C 72.666016 55.083984 63.144531 49.224609 49.960938 49.224609 L 36.777344 49.224609 L 44.833984 88.042969 L 58.017578 88.042969 C 77.792969 88.042969 77.060547 80.718750 75.595703 69.000000 Z" transform="scale(1.000000,1.000000) translate(223.000000,119.000000)" fill="#fffefe" opacity="1.000000"></path>
    </g>
</svg>