<?xml version="1.0" encoding="UTF-8" standalone="yes"?>
<!DOCTYPE svg PUBLIC "-//W3C//DTD SVG 1.1//EN" "http://www.w3.org/Graphics/SVG/1.1/DTD/svg11.dtd">

<svg width="374" height="376" viewBox="0 0 374 376" xmlns="http://www.w3.org/2000/svg" xmlns:xlink="http://www.w3.org/1999/xlink" version="1.1" baseProfile="full">
    <g transform="scale(1,-1) translate(0,-376)">
        <path d="M 373.936711 191.000620 C 374.578771 230.650125 365.645769 277.799628 347.035346 333.119105 L 332.444776 376.500000 L 312.624675 335.249999 C 311.563881 333.044664 310.354204 330.885855 309.088695 328.754961 C 276.529777 356.707818 234.284128 373.708439 188.000000 373.708439 C 85.214644 373.708439 1.895780 290.389576 1.895780 187.604220 C 1.895780 84.818864 85.214644 1.500000 188.000000 1.500000 C 290.785356 1.500000 374.104220 84.818864 374.104220 187.604220 C 374.104220 188.748753 373.955347 189.856086 373.936711 191.000620 Z" transform="scale(1.000000,1.000000) translate(-1.000000,-1.000000)" fill="#7aba39" opacity="1.000000"></path>
        <path d="M 265.160655 60.970237 C 236.100482 20.939218 184.661275 18.789715 136.246262 19.636490 L 73.147642 19.636490 L 55.114144 19.636490 C 96.317618 34.459692 120.836851 37.986366 145.877169 51.274208 C 193.035977 76.072595 239.655086 130.331284 249.360423 186.776693 C 231.401366 132.471482 176.975189 85.815151 127.378410 66.841830 C 93.395780 53.879671 32.018607 41.299026 32.018607 41.299026 L 29.534116 42.648282 C -12.246279 63.668721 -13.511785 157.223320 62.446653 187.428038 C 95.703476 200.669353 127.517994 193.392678 163.445414 202.251239 C 201.801496 211.668112 246.168743 241.407569 264.220848 280.182381 C 284.431775 218.144545 308.755582 121.007437 265.160655 60.970237 L 265.160655 60.970237 Z M 44.468984 6.190450 C 41.844910 2.933640 37.834366 1.026055 33.647023 1.026055 C 25.988834 1.026055 19.735732 7.325683 19.735732 14.983871 C 19.735732 22.642060 26.035360 28.941688 33.647023 28.941688 C 36.820100 28.941688 39.946650 27.843673 42.403226 25.815137 C 48.358564 20.985737 49.289089 12.145779 44.468984 6.190450 L 44.468984 6.190450 Z" transform="scale(1.000000,1.000000) translate(65.000000,46.000000)" fill="#fffefe" opacity="1.000000"></path>
    </g>
</svg>