<svg id="svg" version="1.1" xmlns="http://www.w3.org/2000/svg" xmlns:xlink="http://www.w3.org/1999/xlink" width="400" height="533.3333333333334" viewBox="0, 0, 400,533.3333333333334"><g id="svgg"><path id="path0" d="M269.045 0.872 C 269.156 1.053,269.597 1.200,270.024 1.200 C 270.558 1.200,270.804 1.480,270.812 2.100 C 270.823 2.906,270.867 2.927,271.234 2.297 C 271.781 1.358,271.451 0.928,270.026 0.718 C 269.375 0.623,268.933 0.692,269.045 0.872 M287.000 1.820 C 285.732 2.894,285.686 2.902,288.495 1.538 C 290.434 0.595,292.922 1.936,291.205 2.997 C 290.970 3.142,290.916 2.964,291.071 2.560 C 291.334 1.873,287.789 1.989,286.630 2.705 C 286.401 2.846,285.887 2.986,285.487 3.016 C 284.575 3.083,280.802 6.756,280.794 7.585 C 280.788 8.128,280.742 8.130,280.400 7.600 C 280.086 7.115,280.011 7.172,280.006 7.900 C 280.003 8.395,279.809 8.800,279.576 8.800 C 279.343 8.800,279.282 8.575,279.441 8.300 C 279.608 8.010,279.576 7.940,279.364 8.133 C 279.164 8.317,278.991 8.587,278.980 8.733 C 278.970 8.880,278.822 9.406,278.652 9.903 C 278.208 11.205,280.394 13.392,281.697 12.949 C 282.194 12.780,282.706 12.668,282.836 12.699 C 282.966 12.731,283.956 11.822,285.036 10.679 L 287.000 8.600 284.821 10.600 C 283.623 11.700,282.872 12.295,283.152 11.921 C 283.957 10.851,287.278 7.600,287.566 7.600 C 288.132 7.600,292.000 3.335,292.000 2.711 C 292.000 2.346,292.199 1.924,292.443 1.774 C 293.198 1.307,291.949 0.813,290.000 0.808 C 288.650 0.805,287.900 1.058,287.000 1.820 M307.800 1.820 C 306.532 2.894,306.486 2.902,309.295 1.538 C 311.234 0.595,313.722 1.936,312.005 2.997 C 311.770 3.142,311.716 2.964,311.871 2.560 C 312.134 1.873,308.589 1.989,307.430 2.705 C 307.201 2.846,306.713 2.984,306.345 3.011 C 305.680 3.060,301.800 6.666,301.800 7.235 C 301.800 7.399,301.665 7.668,301.500 7.833 C 301.335 7.998,301.200 7.916,301.200 7.651 C 301.200 7.290,301.060 7.299,300.644 7.684 C 300.242 8.058,300.214 8.281,300.544 8.494 C 300.795 8.656,300.865 8.813,300.700 8.844 C 300.535 8.875,300.220 8.945,300.000 9.000 C 299.780 9.055,299.440 9.123,299.243 9.150 C 299.047 9.178,298.765 9.686,298.616 10.279 C 298.463 10.888,298.226 11.169,298.073 10.923 C 297.885 10.624,297.639 10.662,297.284 11.044 C 296.987 11.365,296.945 11.600,297.184 11.600 C 297.413 11.600,297.285 11.925,296.900 12.322 C 296.443 12.794,296.098 12.898,295.906 12.622 C 295.742 12.387,295.610 12.595,295.606 13.092 C 295.602 13.699,295.291 14.062,294.635 14.227 C 294.033 14.378,293.571 14.862,293.407 15.514 C 293.258 16.107,293.027 16.370,292.873 16.123 C 292.685 15.824,292.439 15.862,292.084 16.244 C 291.787 16.565,291.745 16.800,291.984 16.800 C 292.213 16.800,292.085 17.125,291.700 17.522 C 291.243 17.994,290.898 18.098,290.706 17.822 C 290.542 17.587,290.410 17.795,290.406 18.292 C 290.402 18.908,290.090 19.263,289.400 19.436 C 288.850 19.574,288.400 19.858,288.400 20.067 C 288.400 20.276,288.578 20.337,288.795 20.203 C 289.016 20.066,289.093 20.215,288.968 20.538 C 288.600 21.499,291.045 23.703,292.107 23.366 C 292.920 23.108,292.947 23.147,292.433 23.842 C 292.124 24.259,295.878 20.606,300.775 15.725 C 306.848 9.672,309.582 6.684,309.375 6.325 C 309.208 6.036,309.224 5.939,309.411 6.108 C 309.869 6.525,312.800 3.615,312.800 2.742 C 312.800 2.360,312.999 1.924,313.243 1.774 C 313.998 1.307,312.749 0.813,310.800 0.808 C 309.450 0.805,308.700 1.058,307.800 1.820 M327.813 2.312 C 326.720 3.130,325.085 4.540,324.179 5.445 C 323.273 6.349,322.312 7.163,322.044 7.252 C 321.776 7.341,321.506 7.756,321.445 8.174 C 321.384 8.592,321.017 8.980,320.630 9.037 C 319.743 9.167,319.566 9.348,319.432 10.263 C 319.372 10.669,319.116 11.023,318.862 11.050 C 318.608 11.078,318.220 11.123,318.000 11.150 C 317.780 11.178,317.600 11.470,317.600 11.800 C 317.600 12.130,317.330 12.400,317.000 12.400 C 316.423 12.400,316.234 12.846,316.369 13.894 C 316.404 14.165,316.178 14.290,315.868 14.171 C 315.211 13.919,314.000 14.994,314.000 15.829 C 314.000 16.143,313.865 16.379,313.700 16.353 C 312.875 16.222,312.400 16.459,312.400 17.000 C 312.400 17.330,312.130 17.600,311.800 17.600 C 311.470 17.600,311.178 17.780,311.150 18.000 C 311.123 18.220,311.078 18.608,311.050 18.862 C 311.023 19.116,310.669 19.372,310.263 19.432 C 309.313 19.571,309.170 19.733,309.094 20.753 C 309.059 21.217,308.843 21.576,308.615 21.551 C 307.628 21.443,307.200 21.639,307.200 22.200 C 307.200 22.530,306.930 22.800,306.600 22.800 C 306.270 22.800,305.978 22.980,305.950 23.200 C 305.923 23.420,305.877 23.808,305.850 24.062 C 305.822 24.316,305.469 24.572,305.063 24.632 C 304.113 24.771,303.970 24.933,303.894 25.953 C 303.859 26.417,303.643 26.776,303.415 26.751 C 302.428 26.643,302.000 26.839,302.000 27.400 C 302.000 27.730,301.730 28.000,301.400 28.000 C 301.070 28.000,300.778 28.180,300.750 28.400 C 300.723 28.620,300.678 29.025,300.650 29.300 C 300.623 29.575,300.375 29.823,300.100 29.850 C 299.825 29.877,299.420 29.923,299.200 29.950 C 298.980 29.977,298.800 30.191,298.800 30.424 C 298.800 30.657,298.978 30.737,299.195 30.603 C 299.416 30.466,299.493 30.615,299.368 30.938 C 299.103 31.630,301.085 33.772,302.281 34.085 C 303.373 34.370,330.683 7.203,330.179 6.332 C 330.010 6.039,330.024 5.939,330.211 6.108 C 330.666 6.523,333.600 3.618,333.600 2.752 C 333.600 2.375,333.825 1.975,334.100 1.864 C 335.055 1.476,333.466 0.812,331.600 0.818 C 330.151 0.823,329.413 1.114,327.813 2.312 M349.900 1.429 C 349.295 1.757,348.800 2.085,348.800 2.157 C 348.800 2.435,350.823 1.886,351.030 1.552 C 351.414 0.931,354.000 1.136,354.000 1.787 C 354.000 2.147,353.766 2.285,353.396 2.143 C 351.304 1.341,347.832 2.812,344.593 5.873 C 342.837 7.533,341.653 8.752,341.962 8.583 C 342.338 8.378,342.428 8.431,342.234 8.745 C 342.075 9.002,341.792 9.118,341.605 9.003 C 341.161 8.729,339.929 9.961,340.203 10.405 C 340.318 10.592,340.202 10.875,339.945 11.034 C 339.628 11.230,339.581 11.142,339.800 10.762 C 339.978 10.453,339.562 10.723,338.876 11.361 C 338.190 12.000,337.725 12.679,337.844 12.871 C 337.962 13.063,337.829 13.170,337.548 13.110 C 337.267 13.049,337.028 13.253,337.018 13.562 C 337.008 13.871,336.658 14.174,336.240 14.235 C 335.430 14.354,334.735 15.171,335.033 15.653 C 335.132 15.814,335.002 16.075,334.745 16.234 C 334.428 16.430,334.381 16.342,334.600 15.962 C 334.778 15.653,334.362 15.923,333.676 16.561 C 332.990 17.200,332.525 17.879,332.644 18.071 C 332.762 18.263,332.629 18.370,332.348 18.310 C 332.067 18.249,331.828 18.453,331.818 18.762 C 331.808 19.071,331.458 19.374,331.040 19.435 C 330.230 19.554,329.535 20.371,329.833 20.853 C 329.932 21.014,329.802 21.275,329.545 21.434 C 329.228 21.630,329.181 21.542,329.400 21.162 C 329.578 20.853,329.162 21.123,328.476 21.761 C 327.790 22.400,327.325 23.079,327.444 23.271 C 327.562 23.463,327.429 23.570,327.148 23.510 C 326.867 23.449,326.628 23.653,326.618 23.962 C 326.608 24.271,326.269 24.572,325.863 24.632 C 324.942 24.767,324.767 24.942,324.632 25.863 C 324.572 26.269,324.271 26.608,323.962 26.618 C 323.653 26.628,323.449 26.867,323.510 27.148 C 323.570 27.429,323.456 27.558,323.255 27.434 C 322.783 27.142,321.914 28.180,322.303 28.570 C 322.467 28.733,322.338 28.807,322.018 28.733 C 321.698 28.660,321.428 28.853,321.418 29.162 C 321.408 29.471,321.069 29.772,320.663 29.832 C 319.742 29.967,319.567 30.142,319.432 31.063 C 319.372 31.469,319.071 31.808,318.762 31.818 C 318.453 31.828,318.249 32.067,318.310 32.348 C 318.370 32.629,318.263 32.762,318.071 32.644 C 317.879 32.525,317.200 32.990,316.561 33.676 C 315.923 34.362,315.653 34.778,315.962 34.600 C 316.342 34.381,316.430 34.428,316.234 34.745 C 316.075 35.002,315.814 35.132,315.653 35.033 C 315.171 34.735,314.354 35.430,314.235 36.240 C 314.174 36.658,313.871 37.008,313.562 37.018 C 313.253 37.028,313.049 37.267,313.110 37.548 C 313.170 37.829,313.078 37.972,312.905 37.865 C 312.419 37.564,311.152 38.647,311.031 39.466 C 310.972 39.870,310.716 40.223,310.462 40.250 C 310.208 40.278,309.820 40.323,309.600 40.350 C 309.380 40.377,309.200 40.591,309.200 40.824 C 309.200 41.057,309.378 41.137,309.595 41.003 C 309.816 40.866,309.893 41.015,309.768 41.338 C 309.515 41.999,311.480 44.181,312.670 44.559 C 313.596 44.853,353.340 5.232,354.531 2.827 C 355.536 0.799,352.662 -0.069,349.900 1.429 M370.700 1.429 C 370.095 1.757,369.600 2.200,369.600 2.413 C 369.600 2.626,369.396 2.800,369.147 2.800 C 368.357 2.800,359.585 11.249,359.865 11.740 C 360.010 11.993,359.976 12.061,359.789 11.892 C 359.348 11.490,356.357 14.407,356.678 14.927 C 356.813 15.145,356.742 15.211,356.520 15.074 C 356.001 14.753,354.294 16.550,354.696 16.994 C 354.863 17.178,354.804 17.217,354.565 17.081 C 354.012 16.766,351.078 19.734,351.492 20.189 C 351.661 20.376,351.601 20.415,351.358 20.276 C 350.806 19.962,349.082 21.737,349.496 22.194 C 349.663 22.378,349.604 22.417,349.365 22.281 C 348.878 22.004,345.865 24.894,346.192 25.325 C 346.306 25.476,346.278 25.508,346.130 25.396 C 345.712 25.081,343.992 26.864,344.274 27.320 C 344.411 27.542,344.347 27.614,344.131 27.481 C 343.611 27.160,338.687 32.145,339.089 32.586 C 339.260 32.774,339.207 32.818,338.971 32.684 C 338.417 32.370,332.274 38.531,332.688 38.985 C 332.860 39.174,332.806 39.218,332.569 39.083 C 332.016 38.769,327.075 43.732,327.489 44.186 C 327.660 44.374,327.606 44.418,327.369 44.283 C 326.816 43.969,321.875 48.932,322.289 49.386 C 322.460 49.574,322.403 49.616,322.161 49.478 C 321.920 49.341,321.200 49.790,320.561 50.476 C 319.923 51.162,319.656 51.576,319.968 51.396 C 320.390 51.153,320.471 51.239,320.281 51.734 C 319.982 52.512,321.789 54.547,323.078 54.884 C 324.034 55.134,330.277 49.235,329.712 48.615 C 329.540 48.426,329.594 48.382,329.831 48.517 C 330.384 48.831,335.325 43.868,334.911 43.414 C 334.740 43.226,334.796 43.183,335.035 43.319 C 335.522 43.596,338.535 40.706,338.208 40.275 C 338.094 40.124,338.122 40.092,338.270 40.204 C 338.688 40.519,340.408 38.736,340.126 38.280 C 339.989 38.058,340.055 37.987,340.273 38.122 C 340.793 38.443,343.710 35.452,343.308 35.011 C 343.139 34.824,343.201 34.786,343.446 34.926 C 344.631 35.602,376.489 2.315,375.770 1.151 C 375.420 0.586,371.899 0.778,370.700 1.429 M391.500 1.429 C 390.895 1.757,390.400 2.200,390.400 2.413 C 390.400 2.626,390.164 2.800,389.875 2.800 C 389.133 2.800,387.125 4.986,387.494 5.392 C 387.662 5.577,387.564 5.592,387.275 5.425 C 386.641 5.059,351.097 40.310,351.478 40.927 C 351.613 41.145,351.547 41.214,351.331 41.081 C 350.811 40.760,345.887 45.745,346.289 46.186 C 346.460 46.374,346.406 46.418,346.169 46.283 C 345.683 46.007,340.661 50.891,340.989 51.322 C 341.105 51.475,341.075 51.505,340.922 51.389 C 340.491 51.061,335.607 56.083,335.883 56.569 C 336.018 56.806,335.974 56.860,335.786 56.688 C 335.257 56.207,330.021 61.589,330.303 62.325 C 330.632 63.181,331.905 64.398,333.145 65.041 C 334.256 65.618,338.725 62.050,338.120 61.070 C 337.986 60.854,338.053 60.786,338.269 60.919 C 338.789 61.240,343.713 56.255,343.311 55.814 C 343.140 55.626,343.193 55.581,343.429 55.715 C 343.982 56.030,350.926 49.070,350.513 48.615 C 350.341 48.426,350.394 48.382,350.631 48.517 C 351.117 48.793,356.139 43.909,355.811 43.478 C 355.695 43.325,355.725 43.295,355.878 43.411 C 356.309 43.739,361.193 38.717,360.917 38.231 C 360.782 37.994,360.819 37.933,360.999 38.097 C 361.447 38.502,362.454 37.611,362.134 37.093 C 361.992 36.864,362.058 36.789,362.280 36.926 C 362.799 37.247,364.506 35.450,364.104 35.006 C 363.937 34.822,363.999 34.785,364.242 34.924 C 364.794 35.238,366.518 33.463,366.104 33.006 C 365.937 32.822,366.005 32.789,366.255 32.931 C 366.806 33.246,367.714 32.260,367.297 31.799 C 367.133 31.619,367.199 31.585,367.442 31.724 C 367.994 32.038,369.718 30.263,369.304 29.806 C 369.137 29.622,369.199 29.585,369.442 29.724 C 369.994 30.038,371.718 28.263,371.304 27.806 C 371.137 27.622,371.205 27.589,371.455 27.731 C 372.006 28.046,372.914 27.060,372.497 26.599 C 372.333 26.419,372.399 26.385,372.642 26.524 C 373.194 26.838,374.918 25.063,374.504 24.606 C 374.337 24.422,374.399 24.385,374.642 24.524 C 375.130 24.802,376.929 23.102,376.604 22.670 C 376.492 22.522,376.518 22.488,376.663 22.597 C 377.085 22.912,378.017 21.951,377.734 21.493 C 377.592 21.264,377.658 21.189,377.880 21.326 C 378.399 21.647,380.106 19.850,379.704 19.406 C 379.537 19.222,379.599 19.185,379.842 19.324 C 380.394 19.638,382.118 17.863,381.704 17.406 C 381.537 17.222,381.605 17.189,381.855 17.331 C 382.406 17.646,383.314 16.660,382.897 16.199 C 382.733 16.019,382.799 15.985,383.042 16.124 C 383.530 16.402,385.329 14.702,385.004 14.270 C 384.892 14.122,384.922 14.092,385.070 14.204 C 385.488 14.519,387.208 12.736,386.926 12.280 C 386.789 12.058,386.853 11.986,387.069 12.119 C 387.286 12.253,388.528 11.247,389.831 9.884 C 391.328 8.317,391.605 7.920,390.583 8.803 C 389.292 9.919,389.332 9.850,390.783 8.464 C 395.617 3.844,397.269 1.969,395.590 3.006 C 395.365 3.145,395.230 3.021,395.290 2.730 C 395.373 2.332,394.803 2.215,393.000 2.260 C 391.680 2.293,390.960 2.230,391.400 2.121 C 391.840 2.012,392.371 1.760,392.580 1.561 C 393.227 0.946,395.530 1.146,395.925 1.851 C 396.174 2.297,396.378 2.360,396.568 2.051 C 397.372 0.751,393.603 0.288,391.500 1.429 M333.200 1.976 C 333.200 2.403,333.022 2.863,332.805 2.997 C 332.578 3.137,332.511 2.977,332.647 2.621 C 332.924 1.899,331.881 1.814,329.503 2.367 C 328.627 2.570,328.097 2.566,328.226 2.357 C 328.348 2.161,328.786 2.000,329.200 2.000 C 329.614 2.000,330.064 1.820,330.200 1.600 C 330.689 0.809,333.200 1.124,333.200 1.976 M374.796 1.700 C 374.794 2.041,374.000 2.215,372.296 2.247 C 370.923 2.273,370.160 2.210,370.600 2.108 C 371.040 2.006,371.571 1.760,371.780 1.561 C 372.363 1.007,374.801 1.120,374.796 1.700 M364.400 7.322 C 364.400 7.388,363.725 8.063,362.900 8.822 L 361.400 10.200 362.778 8.700 C 364.062 7.304,364.400 7.016,364.400 7.322 M385.200 7.322 C 385.200 7.388,384.525 8.063,383.700 8.822 L 382.200 10.200 383.578 8.700 C 384.862 7.304,385.200 7.016,385.200 7.322 M300.800 15.400 C 296.514 19.690,292.918 23.200,292.808 23.200 C 292.698 23.200,293.597 22.207,294.804 20.993 C 296.012 19.780,299.430 16.296,302.400 13.253 C 305.370 10.209,307.978 7.692,308.196 7.659 C 308.414 7.627,305.086 11.110,300.800 15.400 M329.200 7.702 C 329.200 7.759,323.216 13.744,315.902 21.002 L 302.604 34.200 315.602 20.963 C 326.937 9.419,329.200 7.212,329.200 7.702 M350.000 7.713 C 350.000 7.774,348.875 8.899,347.500 10.213 L 345.000 12.600 347.387 10.100 C 349.605 7.778,350.000 7.417,350.000 7.713 M370.800 7.722 C 370.800 7.788,370.125 8.463,369.300 9.222 L 367.800 10.600 369.178 9.100 C 370.462 7.704,370.800 7.416,370.800 7.722 M399.400 14.800 C 399.264 15.020,398.783 15.200,398.330 15.200 C 397.018 15.200,340.322 71.917,340.795 72.757 C 341.519 74.045,343.021 75.471,343.886 75.692 C 344.843 75.936,346.982 74.218,346.564 73.542 C 346.441 73.343,346.579 73.230,346.870 73.290 C 347.162 73.351,347.351 73.162,347.290 72.870 C 347.230 72.579,347.322 72.428,347.495 72.535 C 347.972 72.830,349.247 71.760,349.364 70.967 C 349.420 70.582,349.782 70.220,350.167 70.164 C 350.960 70.047,352.030 68.772,351.735 68.295 C 351.628 68.122,351.779 68.030,352.070 68.090 C 352.362 68.151,352.551 67.962,352.490 67.670 C 352.430 67.379,352.522 67.228,352.695 67.335 C 353.172 67.630,354.447 66.560,354.564 65.767 C 354.620 65.382,354.982 65.020,355.367 64.964 C 356.160 64.847,357.230 63.572,356.935 63.095 C 356.828 62.922,356.979 62.830,357.270 62.890 C 357.562 62.951,357.751 62.762,357.690 62.470 C 357.630 62.179,357.722 62.028,357.895 62.135 C 358.372 62.430,359.647 61.360,359.764 60.567 C 359.820 60.182,360.182 59.820,360.567 59.764 C 361.360 59.647,362.430 58.372,362.135 57.895 C 362.028 57.722,362.179 57.630,362.470 57.690 C 362.762 57.751,362.951 57.562,362.890 57.270 C 362.830 56.979,362.922 56.828,363.095 56.935 C 363.572 57.230,364.847 56.160,364.964 55.367 C 365.020 54.982,365.382 54.620,365.767 54.564 C 366.560 54.447,367.630 53.172,367.335 52.695 C 367.228 52.522,367.379 52.430,367.670 52.490 C 367.962 52.551,368.151 52.362,368.090 52.070 C 368.030 51.779,368.122 51.628,368.295 51.735 C 368.772 52.030,370.047 50.960,370.164 50.167 C 370.220 49.782,370.548 49.425,370.892 49.375 C 371.699 49.256,373.256 47.699,373.375 46.892 C 373.425 46.548,373.783 46.220,374.170 46.163 C 375.050 46.034,375.234 45.850,375.363 44.970 C 375.420 44.583,375.748 44.225,376.092 44.175 C 376.899 44.056,378.456 42.499,378.575 41.692 C 378.625 41.348,378.983 41.020,379.370 40.963 C 380.250 40.834,380.434 40.650,380.563 39.770 C 380.620 39.383,380.948 39.025,381.292 38.975 C 382.099 38.856,383.656 37.299,383.775 36.492 C 383.825 36.148,384.183 35.820,384.570 35.763 C 385.450 35.634,385.634 35.450,385.763 34.570 C 385.820 34.183,386.148 33.825,386.492 33.775 C 387.299 33.656,388.856 32.099,388.975 31.292 C 389.025 30.948,389.382 30.620,389.767 30.564 C 390.560 30.447,391.630 29.172,391.335 28.695 C 391.228 28.522,391.289 28.406,391.470 28.437 C 392.231 28.570,392.800 28.372,392.800 27.976 C 392.800 27.743,392.575 27.682,392.300 27.841 C 392.025 27.999,392.236 27.650,392.770 27.065 C 393.303 26.479,393.826 26.000,393.932 26.000 C 394.037 26.000,393.791 26.368,393.384 26.817 C 392.736 27.533,392.729 27.602,393.322 27.374 C 393.695 27.231,394.000 26.960,394.000 26.771 C 394.000 26.582,394.495 25.917,395.100 25.292 C 397.670 22.639,398.801 21.123,398.545 20.676 C 398.395 20.414,398.418 20.332,398.596 20.494 C 398.775 20.655,399.158 20.475,399.448 20.094 C 400.154 19.163,400.134 18.663,399.400 18.945 C 398.930 19.125,398.800 18.838,398.800 17.621 C 398.800 16.752,398.580 15.978,398.300 15.865 C 398.025 15.754,398.295 15.649,398.900 15.632 C 399.597 15.612,400.000 15.380,400.000 15.000 C 400.000 14.307,399.755 14.225,399.400 14.800 M393.600 19.715 C 393.600 19.778,392.655 20.723,391.500 21.815 L 389.400 23.800 391.385 21.700 C 393.229 19.749,393.600 19.417,393.600 19.715 M389.200 24.113 C 389.200 24.174,388.075 25.299,386.700 26.613 L 384.200 29.000 386.587 26.500 C 388.805 24.178,389.200 23.817,389.200 24.113 M384.000 29.313 C 384.000 29.374,382.875 30.499,381.500 31.813 L 379.000 34.200 381.387 31.700 C 383.605 29.378,384.000 29.017,384.000 29.313 M378.800 34.513 C 378.800 34.574,377.675 35.699,376.300 37.013 L 373.800 39.400 376.187 36.900 C 378.405 34.578,378.800 34.217,378.800 34.513 M398.173 36.166 C 397.498 36.460,395.968 37.802,394.773 39.148 C 392.836 41.330,351.971 82.329,351.280 82.784 C 351.126 82.885,360.540 73.345,372.200 61.584 L 393.400 40.200 372.125 61.373 C 355.388 78.031,350.923 82.683,351.193 83.186 C 352.122 84.923,353.662 85.967,354.937 85.725 C 356.484 85.431,356.429 85.476,356.507 84.445 C 356.571 83.588,357.023 83.301,357.267 83.961 C 357.340 84.159,357.632 84.069,357.916 83.761 C 358.214 83.437,358.256 83.200,358.016 83.200 C 357.206 83.200,357.613 82.569,358.464 82.505 C 359.484 82.428,360.019 81.715,359.694 80.867 C 359.532 80.445,359.645 80.332,360.067 80.494 C 360.915 80.819,361.628 80.284,361.705 79.264 C 361.771 78.392,362.220 78.095,362.467 78.761 C 362.540 78.959,362.832 78.869,363.116 78.561 C 363.414 78.237,363.456 78.000,363.216 78.000 C 362.406 78.000,362.813 77.369,363.664 77.305 C 364.684 77.228,365.219 76.515,364.894 75.667 C 364.732 75.245,364.845 75.132,365.267 75.294 C 366.115 75.619,366.828 75.084,366.905 74.064 C 366.971 73.192,367.420 72.895,367.667 73.561 C 367.740 73.759,368.032 73.669,368.316 73.361 C 368.614 73.037,368.656 72.800,368.416 72.800 C 368.187 72.800,368.000 72.620,368.000 72.400 C 368.000 72.180,368.135 72.021,368.300 72.047 C 369.500 72.237,370.000 71.916,370.000 70.957 C 370.000 70.250,370.172 69.981,370.536 70.120 C 371.321 70.421,372.031 69.853,372.105 68.864 C 372.169 68.013,372.800 67.606,372.800 68.416 C 372.800 68.656,373.037 68.614,373.361 68.316 C 373.669 68.032,373.759 67.740,373.561 67.667 C 373.127 67.506,373.073 66.780,373.500 66.847 C 374.700 67.037,375.200 66.716,375.200 65.757 C 375.200 65.050,375.372 64.781,375.736 64.920 C 376.521 65.221,377.231 64.653,377.305 63.664 C 377.369 62.813,378.000 62.406,378.000 63.216 C 378.000 63.456,378.237 63.414,378.561 63.116 C 378.869 62.832,378.959 62.540,378.761 62.467 C 378.101 62.223,378.388 61.771,379.245 61.707 C 380.299 61.627,380.427 61.498,380.507 60.435 C 380.543 59.965,380.774 59.658,381.022 59.753 C 381.728 60.024,382.434 59.411,382.505 58.464 C 382.571 57.592,383.020 57.295,383.267 57.961 C 383.340 58.159,383.632 58.069,383.916 57.761 C 384.214 57.437,384.256 57.200,384.016 57.200 C 383.217 57.200,383.607 56.570,384.445 56.507 C 385.499 56.427,385.627 56.298,385.707 55.235 C 385.743 54.765,385.974 54.458,386.222 54.553 C 386.470 54.648,386.926 54.565,387.236 54.369 C 387.712 54.068,387.707 54.009,387.200 53.994 C 386.731 53.980,386.755 53.885,387.308 53.563 C 387.698 53.336,387.912 52.982,387.785 52.775 C 387.657 52.569,387.743 52.400,387.976 52.400 C 388.209 52.400,388.400 52.587,388.400 52.816 C 388.400 53.056,388.637 53.014,388.961 52.716 C 389.269 52.432,389.359 52.140,389.161 52.067 C 388.727 51.906,388.673 51.180,389.100 51.247 C 390.160 51.415,390.748 51.063,390.984 50.121 C 391.137 49.512,391.374 49.231,391.527 49.477 C 391.717 49.779,391.949 49.751,392.288 49.385 C 392.673 48.971,392.673 48.817,392.288 48.661 C 391.992 48.541,392.057 48.451,392.453 48.432 C 392.813 48.414,393.202 48.035,393.319 47.589 C 393.436 47.142,393.702 46.827,393.910 46.889 C 394.118 46.950,395.169 46.065,396.244 44.923 C 398.827 42.179,399.200 41.712,399.200 41.217 C 399.200 40.988,399.380 40.800,399.600 40.800 C 399.820 40.800,400.000 40.511,400.000 40.157 C 400.000 39.770,399.777 39.600,399.438 39.730 C 399.019 39.891,398.840 39.496,398.735 38.173 C 398.618 36.695,398.711 36.400,399.297 36.400 C 399.684 36.400,400.000 36.220,400.000 36.000 C 400.000 35.483,399.671 35.513,398.173 36.166 M373.600 39.713 C 373.600 39.774,372.475 40.899,371.100 42.213 L 368.600 44.600 370.987 42.100 C 373.205 39.778,373.600 39.417,373.600 39.713 M368.400 44.922 C 368.400 44.988,367.725 45.663,366.900 46.422 L 365.400 47.800 366.778 46.300 C 368.062 44.904,368.400 44.616,368.400 44.922 M363.200 50.122 C 363.200 50.188,362.525 50.863,361.700 51.622 L 360.200 53.000 361.578 51.500 C 362.862 50.104,363.200 49.816,363.200 50.122 M358.000 55.322 C 358.000 55.388,357.325 56.063,356.500 56.822 L 355.000 58.200 356.378 56.700 C 357.662 55.304,358.000 55.016,358.000 55.322 M398.194 56.957 C 397.530 57.246,396.012 58.544,394.819 59.841 C 393.625 61.139,392.801 61.947,392.986 61.638 C 393.217 61.254,393.175 61.168,392.855 61.366 C 392.598 61.525,392.482 61.808,392.597 61.995 C 392.854 62.410,391.652 63.680,391.243 63.427 C 391.082 63.327,384.211 70.009,375.975 78.274 C 367.739 86.540,361.225 93.179,361.500 93.028 C 361.822 92.851,362.000 93.027,362.000 93.522 C 362.000 94.470,363.875 96.410,364.755 96.372 C 365.586 96.336,367.160 95.665,366.500 95.628 C 366.166 95.609,366.233 95.360,366.700 94.878 C 367.085 94.481,367.490 94.281,367.600 94.434 C 367.710 94.586,368.032 94.461,368.316 94.156 C 368.613 93.835,368.655 93.600,368.416 93.600 C 368.187 93.600,368.315 93.275,368.700 92.878 C 369.157 92.406,369.502 92.302,369.694 92.578 C 369.858 92.813,369.990 92.605,369.994 92.108 C 369.998 91.483,370.312 91.137,371.038 90.955 C 371.609 90.811,371.914 90.583,371.716 90.447 C 371.518 90.311,371.681 89.885,372.078 89.500 C 372.475 89.115,372.800 88.987,372.800 89.216 C 372.800 89.455,373.035 89.413,373.356 89.116 C 373.661 88.832,373.786 88.510,373.634 88.400 C 373.481 88.290,373.681 87.885,374.078 87.500 C 374.559 87.034,374.808 86.967,374.825 87.300 C 374.839 87.575,375.015 87.391,375.216 86.891 C 375.417 86.390,375.990 85.817,376.491 85.616 C 376.991 85.415,377.175 85.239,376.900 85.225 C 376.567 85.208,376.634 84.959,377.100 84.478 C 377.485 84.081,377.890 83.881,378.000 84.034 C 378.110 84.186,378.432 84.061,378.716 83.756 C 379.013 83.435,379.055 83.200,378.816 83.200 C 378.587 83.200,378.715 82.875,379.100 82.478 C 379.485 82.081,379.911 81.918,380.047 82.116 C 380.183 82.314,380.411 82.009,380.555 81.438 C 380.737 80.712,381.083 80.398,381.708 80.394 C 382.205 80.390,382.413 80.258,382.178 80.094 C 381.901 79.901,381.996 79.568,382.453 79.125 C 382.943 78.650,383.207 78.591,383.343 78.925 C 383.450 79.186,383.551 79.085,383.568 78.700 C 383.606 77.862,385.184 76.154,385.232 76.900 C 385.249 77.175,385.444 76.905,385.665 76.300 C 385.927 75.582,386.367 75.189,386.933 75.168 C 387.410 75.151,387.586 75.050,387.325 74.943 C 386.991 74.807,387.050 74.543,387.525 74.053 C 387.968 73.596,388.301 73.501,388.494 73.778 C 388.668 74.028,388.790 73.915,388.794 73.500 C 388.802 72.574,390.279 71.076,390.543 71.725 C 390.719 72.156,390.961 71.020,390.847 70.300 C 390.821 70.135,390.980 70.000,391.200 70.000 C 391.420 70.000,391.600 70.187,391.600 70.416 C 391.600 70.655,391.835 70.613,392.156 70.316 C 392.461 70.032,392.586 69.710,392.434 69.600 C 392.281 69.490,392.481 69.085,392.878 68.700 C 393.275 68.315,393.600 68.194,393.600 68.431 C 393.600 68.668,394.072 68.300,394.650 67.614 C 395.227 66.927,396.307 65.740,397.050 64.976 C 398.308 63.680,398.904 62.441,398.000 63.000 C 397.349 63.402,397.544 62.943,398.277 62.349 C 398.737 61.976,398.857 61.960,398.653 62.300 C 398.488 62.575,398.543 62.800,398.776 62.800 C 399.009 62.800,399.200 62.530,399.200 62.200 C 399.200 61.870,399.380 61.600,399.600 61.600 C 399.820 61.600,400.000 61.311,400.000 60.957 C 400.000 60.570,399.777 60.400,399.438 60.530 C 399.019 60.691,398.840 60.296,398.735 58.973 C 398.618 57.495,398.711 57.200,399.297 57.200 C 399.684 57.200,400.000 57.020,400.000 56.800 C 400.000 56.285,399.671 56.313,398.194 56.957 M352.800 60.522 C 352.800 60.588,352.125 61.263,351.300 62.022 L 349.800 63.400 351.178 61.900 C 352.462 60.504,352.800 60.216,352.800 60.522 M391.167 63.788 C 389.897 65.216,362.197 92.800,362.033 92.800 C 361.907 92.800,368.372 86.230,376.400 78.200 C 384.428 70.170,391.072 63.600,391.165 63.600 C 391.257 63.600,391.258 63.684,391.167 63.788 M347.600 65.722 C 347.600 65.788,346.925 66.463,346.100 67.222 L 344.600 68.600 345.978 67.100 C 347.262 65.704,347.600 65.416,347.600 65.722 M398.400 77.646 C 397.167 78.133,393.600 81.580,393.600 82.285 C 393.600 82.568,393.409 82.800,393.176 82.800 C 392.943 82.800,392.881 82.592,393.038 82.338 C 393.216 82.050,393.148 81.985,392.855 82.166 C 392.598 82.325,392.482 82.608,392.597 82.795 C 392.858 83.217,391.649 84.477,391.231 84.219 C 391.064 84.116,390.313 84.699,389.563 85.516 L 388.200 87.000 389.799 85.600 L 391.398 84.200 390.199 85.598 C 389.540 86.367,388.971 87.055,388.937 87.128 C 388.902 87.201,388.557 87.306,388.170 87.363 C 387.783 87.420,387.419 87.794,387.360 88.193 C 387.249 88.949,386.426 89.664,385.982 89.389 C 385.842 89.302,385.113 89.899,384.363 90.716 L 383.000 92.200 384.599 90.800 L 386.198 89.400 384.999 90.798 C 384.340 91.567,383.771 92.255,383.737 92.328 C 383.702 92.401,383.357 92.506,382.970 92.563 C 382.583 92.620,382.219 92.994,382.160 93.393 C 382.048 94.157,381.225 94.863,380.773 94.583 C 380.410 94.359,379.063 95.892,378.951 96.656 C 378.834 97.448,378.633 97.637,377.770 97.763 C 377.383 97.820,377.020 98.183,376.963 98.570 C 376.906 98.957,376.801 99.302,376.728 99.337 C 376.655 99.371,375.967 99.940,375.198 100.599 L 373.800 101.798 375.200 100.199 L 376.600 98.600 375.116 99.963 C 374.299 100.713,373.716 101.464,373.819 101.631 C 374.077 102.049,372.817 103.258,372.395 102.997 C 372.208 102.882,371.925 102.998,371.766 103.255 C 371.585 103.548,371.650 103.616,371.938 103.438 C 372.226 103.260,372.400 103.442,372.400 103.922 C 372.400 104.916,374.284 106.800,375.278 106.800 C 375.758 106.800,375.940 106.974,375.762 107.262 C 375.584 107.550,375.652 107.615,375.945 107.434 C 376.202 107.275,376.321 106.995,376.207 106.812 C 376.094 106.629,376.890 105.572,377.976 104.464 C 379.140 103.274,380.029 102.643,380.143 102.924 C 380.251 103.189,380.351 103.100,380.368 102.724 C 380.386 102.352,380.608 101.919,380.862 101.762 C 381.167 101.573,381.214 101.654,381.000 102.000 C 380.784 102.349,380.833 102.427,381.145 102.234 C 381.402 102.075,381.518 101.791,381.402 101.603 C 381.126 101.157,385.557 96.726,386.003 97.002 C 386.191 97.118,386.475 97.002,386.634 96.745 C 386.827 96.433,386.749 96.384,386.400 96.600 C 386.054 96.814,385.973 96.767,386.162 96.462 C 386.319 96.208,386.752 95.986,387.124 95.968 C 387.500 95.951,387.589 95.851,387.324 95.743 C 387.043 95.629,387.674 94.740,388.864 93.576 C 389.972 92.490,391.029 91.694,391.212 91.807 C 391.395 91.921,391.675 91.802,391.834 91.545 C 392.015 91.252,391.950 91.184,391.662 91.362 C 391.408 91.519,391.200 91.457,391.200 91.224 C 391.200 90.991,391.605 90.797,392.100 90.794 C 392.601 90.790,392.813 90.657,392.578 90.494 C 392.302 90.302,392.406 89.957,392.878 89.500 C 393.275 89.115,393.600 88.972,393.600 89.183 C 393.600 89.393,394.455 88.633,395.500 87.493 C 396.545 86.353,397.635 85.168,397.923 84.859 C 398.211 84.550,398.354 84.056,398.240 83.761 C 398.127 83.467,398.235 83.102,398.479 82.951 C 398.748 82.785,398.811 82.859,398.638 83.138 C 398.481 83.392,398.543 83.600,398.776 83.600 C 399.009 83.600,399.200 83.330,399.200 83.000 C 399.200 82.670,399.380 82.400,399.600 82.400 C 399.820 82.400,400.000 82.111,400.000 81.757 C 400.000 81.350,399.780 81.199,399.400 81.345 C 398.927 81.526,398.800 81.229,398.800 79.938 C 398.800 78.438,398.742 78.347,398.100 78.851 C 397.466 79.349,397.451 79.334,397.949 78.700 C 398.251 78.315,398.836 78.000,399.249 78.000 C 399.662 78.000,400.000 77.820,400.000 77.600 C 400.000 77.119,399.714 77.127,398.400 77.646 M398.200 98.601 C 396.914 99.176,393.467 102.498,393.588 103.048 C 393.627 103.231,393.422 103.443,393.130 103.520 C 392.768 103.616,392.790 103.515,393.200 103.200 C 393.675 102.835,393.682 102.771,393.235 102.891 C 392.924 102.975,392.623 103.365,392.565 103.758 C 392.433 104.657,392.254 104.834,391.337 104.968 C 390.931 105.028,390.600 105.329,390.600 105.638 C 390.600 105.947,390.347 106.200,390.038 106.200 C 389.729 106.200,389.428 106.531,389.368 106.937 C 389.234 107.852,389.057 108.033,388.170 108.163 C 387.783 108.220,387.420 108.583,387.363 108.970 C 387.233 109.857,387.052 110.034,386.137 110.168 C 385.731 110.228,385.400 110.529,385.400 110.838 C 385.400 111.147,385.147 111.400,384.838 111.400 C 384.529 111.400,384.226 111.742,384.165 112.160 C 384.046 112.970,383.229 113.665,382.747 113.367 C 382.586 113.268,382.325 113.398,382.166 113.655 C 381.985 113.948,382.050 114.016,382.338 113.838 C 382.626 113.660,382.800 113.842,382.800 114.322 C 382.800 115.316,384.684 117.200,385.678 117.200 C 386.158 117.200,386.340 117.374,386.162 117.662 C 385.984 117.950,386.052 118.015,386.345 117.834 C 386.602 117.675,386.718 117.392,386.603 117.205 C 386.329 116.761,387.561 115.529,388.005 115.803 C 388.192 115.918,388.475 115.802,388.634 115.545 C 388.815 115.252,388.750 115.184,388.462 115.362 C 387.592 115.899,388.000 115.173,389.259 113.942 C 389.951 113.266,390.791 112.672,391.126 112.623 C 391.460 112.574,391.775 112.252,391.825 111.908 C 391.927 111.214,393.407 109.600,393.942 109.600 C 394.644 109.600,398.471 105.161,398.254 104.598 C 398.134 104.283,398.235 103.902,398.479 103.751 C 398.748 103.585,398.811 103.659,398.638 103.938 C 398.481 104.192,398.543 104.400,398.776 104.400 C 399.009 104.400,399.200 104.130,399.200 103.800 C 399.200 103.470,399.380 103.200,399.600 103.200 C 399.820 103.200,400.000 102.911,400.000 102.557 C 400.000 102.170,399.777 102.000,399.438 102.130 C 399.019 102.291,398.840 101.896,398.735 100.573 C 398.618 99.095,398.711 98.800,399.297 98.800 C 399.684 98.800,400.000 98.620,400.000 98.400 C 400.000 97.897,399.701 97.931,398.200 98.601 M398.359 119.332 C 397.786 119.590,396.170 120.863,394.768 122.162 C 393.367 123.462,392.665 124.287,393.210 123.997 C 394.123 123.510,394.156 123.522,393.640 124.148 C 392.131 125.977,395.949 128.726,397.524 126.945 C 398.032 126.370,398.355 125.659,398.241 125.363 C 398.128 125.067,398.235 124.702,398.479 124.551 C 398.748 124.385,398.811 124.459,398.638 124.738 C 398.481 124.992,398.543 125.200,398.776 125.200 C 399.009 125.200,399.200 124.930,399.200 124.600 C 399.200 124.270,399.380 124.000,399.600 124.000 C 399.820 124.000,400.000 123.711,400.000 123.357 C 400.000 122.970,399.777 122.800,399.438 122.930 C 399.019 123.091,398.840 122.696,398.735 121.373 C 398.618 119.895,398.711 119.600,399.297 119.600 C 399.684 119.600,400.000 119.420,400.000 119.200 C 400.000 118.708,399.695 118.733,398.359 119.332 M272.303 133.550 C 272.550 134.217,275.788 137.732,278.556 140.336 C 279.411 141.141,281.751 143.481,283.756 145.535 C 285.760 147.589,288.100 149.929,288.956 150.735 C 289.811 151.541,292.151 153.881,294.156 155.935 C 296.160 157.989,298.500 160.329,299.356 161.135 C 300.211 161.941,302.551 164.281,304.556 166.335 C 306.560 168.389,308.900 170.729,309.756 171.535 C 310.612 172.341,312.952 174.679,314.956 176.730 C 316.960 178.782,319.122 180.942,319.760 181.530 C 320.399 182.119,322.778 184.490,325.048 186.800 C 327.318 189.110,329.337 191.159,329.535 191.352 C 329.733 191.546,332.077 193.886,334.743 196.552 C 343.631 205.440,336.471 198.280,345.096 206.904 C 347.683 209.492,349.980 211.787,350.200 212.005 C 350.552 212.355,359.562 221.360,360.600 222.401 C 360.820 222.621,363.160 224.961,365.800 227.601 C 368.440 230.240,370.780 232.580,371.000 232.801 C 371.220 233.021,373.560 235.361,376.200 238.001 C 378.840 240.640,381.180 242.983,381.400 243.206 C 385.850 247.728,399.605 261.200,399.772 261.200 C 399.897 261.200,400.000 232.445,400.000 197.300 L 400.000 133.400 337.500 133.467 C 303.125 133.504,274.339 133.392,273.532 133.217 C 272.269 132.944,272.097 132.991,272.303 133.550 M117.168 313.645 C 117.150 338.770,116.971 359.683,116.758 361.600 C 116.549 363.470,116.244 366.260,116.079 367.800 C 115.915 369.340,115.559 370.993,115.290 371.474 C 115.020 371.954,114.800 372.979,114.800 373.750 C 114.800 374.522,114.620 375.264,114.400 375.400 C 114.180 375.536,114.000 376.052,114.000 376.547 C 114.000 377.042,113.736 377.796,113.413 378.224 C 113.090 378.651,112.820 379.286,112.813 379.636 C 112.794 380.588,110.017 385.893,108.900 387.112 C 108.625 387.412,108.400 387.815,108.400 388.008 C 108.400 388.591,101.842 394.957,100.579 395.599 C 99.930 395.929,99.310 396.307,99.200 396.440 C 99.090 396.573,98.280 396.993,97.400 397.374 C 96.520 397.755,95.209 398.322,94.486 398.633 C 93.764 398.945,92.675 399.200,92.066 399.200 C 91.458 399.200,90.735 399.425,90.460 399.700 C 89.712 400.448,74.502 400.412,74.037 399.661 C 73.854 399.364,73.387 399.184,73.000 399.261 C 72.504 399.359,92.117 419.218,139.207 466.300 L 206.119 533.200 301.027 533.200 C 396.146 533.200,397.200 533.189,397.200 532.157 C 397.200 531.851,397.470 531.600,397.800 531.600 C 398.130 531.600,398.400 531.330,398.400 531.000 C 398.400 530.670,398.651 530.400,398.957 530.400 C 399.982 530.400,399.993 529.487,399.998 443.015 L 400.004 356.877 364.317 321.193 C 344.689 301.567,328.561 285.718,328.476 285.972 C 328.391 286.226,328.763 287.372,329.302 288.517 C 330.785 291.667,331.296 293.221,331.500 295.200 C 331.602 296.190,331.892 297.253,332.143 297.562 C 332.778 298.342,332.778 313.659,332.143 314.439 C 331.892 314.747,331.602 315.810,331.500 316.800 C 331.271 319.026,330.272 321.902,328.514 325.400 C 326.506 329.396,325.912 330.400,325.560 330.400 C 325.362 330.400,325.200 330.582,325.200 330.803 C 325.200 331.661,318.224 338.800,317.387 338.800 C 317.266 338.800,316.769 339.177,316.283 339.638 C 315.797 340.100,315.040 340.639,314.600 340.837 C 314.160 341.036,313.447 341.424,313.015 341.699 C 310.621 343.227,309.152 344.000,308.640 344.000 C 308.324 344.000,307.465 344.300,306.732 344.668 C 306.000 345.035,305.087 345.485,304.705 345.668 C 304.323 345.850,303.414 346.000,302.685 346.000 C 301.956 346.000,301.158 346.202,300.912 346.448 C 300.039 347.321,294.848 347.712,282.103 347.866 L 269.206 348.021 269.103 372.911 L 269.000 397.800 262.505 397.910 L 256.010 398.020 255.905 352.910 L 255.800 307.800 240.600 292.586 C 232.240 284.218,225.014 276.928,224.542 276.386 C 223.564 275.262,219.597 271.600,219.358 271.600 C 219.271 271.600,219.198 274.075,219.195 277.100 C 219.187 284.894,219.085 285.111,216.138 283.624 C 215.292 283.197,213.880 282.556,213.000 282.199 C 212.120 281.843,210.890 281.292,210.268 280.976 C 209.645 280.659,208.620 280.400,207.991 280.400 C 207.362 280.400,206.751 280.244,206.633 280.053 C 206.515 279.862,205.521 279.587,204.425 279.441 C 203.330 279.296,202.325 279.002,202.193 278.788 C 201.887 278.294,184.716 278.266,183.028 278.757 C 182.353 278.954,180.876 279.404,179.746 279.757 C 178.617 280.111,177.402 280.400,177.046 280.400 C 176.691 280.400,176.400 280.568,176.400 280.773 C 176.400 280.978,175.995 281.269,175.500 281.419 C 175.005 281.570,174.027 282.122,173.327 282.646 C 172.626 283.171,171.956 283.600,171.837 283.600 C 171.159 283.600,167.377 288.003,166.942 289.300 C 166.812 289.685,166.548 290.000,166.353 290.000 C 166.159 290.000,166.000 290.324,166.000 290.720 C 166.000 291.116,165.793 291.647,165.540 291.900 C 163.911 293.529,163.908 305.668,165.535 307.295 C 165.791 307.551,166.000 308.084,166.000 308.480 C 166.000 308.876,166.168 309.200,166.373 309.200 C 166.578 309.200,166.874 309.605,167.031 310.100 C 167.363 311.149,173.383 317.077,174.465 317.421 C 174.869 317.549,175.200 317.822,175.200 318.027 C 175.200 318.232,175.393 318.400,175.629 318.400 C 175.864 318.400,176.308 318.625,176.615 318.900 C 177.681 319.857,178.209 320.205,179.800 321.000 C 180.680 321.440,181.490 321.911,181.600 322.046 C 181.710 322.181,182.205 322.419,182.700 322.573 C 183.195 322.728,183.600 323.022,183.600 323.227 C 183.600 323.432,183.874 323.600,184.208 323.600 C 184.542 323.600,185.529 324.050,186.400 324.600 C 187.271 325.150,188.168 325.600,188.392 325.600 C 188.616 325.600,188.800 325.777,188.800 325.992 C 188.800 326.208,189.250 326.498,189.800 326.636 C 190.350 326.774,190.800 327.026,190.800 327.197 C 190.800 327.367,191.115 327.612,191.500 327.742 C 191.885 327.871,192.470 328.134,192.800 328.326 C 193.130 328.518,193.760 328.855,194.200 329.074 C 198.850 331.392,204.013 334.689,210.200 339.293 C 211.751 340.447,216.752 345.449,217.907 347.000 C 219.898 349.675,221.200 351.610,221.204 351.897 C 221.206 352.063,221.650 353.100,222.191 354.200 C 222.732 355.300,223.181 356.839,223.187 357.620 C 223.194 358.401,223.425 359.265,223.700 359.540 C 224.057 359.897,224.200 361.805,224.200 366.200 C 224.200 370.595,224.057 372.503,223.700 372.860 C 223.425 373.135,223.200 373.956,223.200 374.685 C 223.200 375.414,223.046 376.323,222.859 376.705 C 222.671 377.087,222.201 378.120,221.815 379.000 C 221.428 379.880,220.951 380.870,220.753 381.200 C 220.556 381.530,220.280 382.070,220.139 382.400 C 219.236 384.516,212.496 392.000,211.493 392.000 C 211.313 392.000,210.680 392.450,210.087 393.000 C 209.493 393.550,208.868 394.000,208.696 394.000 C 208.525 394.000,207.671 394.450,206.800 395.000 C 205.929 395.550,204.874 396.000,204.457 396.000 C 204.039 396.000,203.474 396.270,203.200 396.600 C 202.926 396.930,202.214 397.200,201.618 397.200 C 201.021 397.200,200.405 397.329,200.247 397.486 C 199.863 397.870,196.666 398.777,194.200 399.200 C 193.100 399.389,191.390 399.729,190.400 399.955 C 188.086 400.482,176.410 400.476,173.800 399.946 C 172.700 399.722,170.540 399.405,169.000 399.240 C 167.460 399.075,165.693 398.729,165.074 398.470 C 164.455 398.212,163.430 398.000,162.798 398.000 C 162.165 398.000,161.548 397.840,161.427 397.644 C 161.306 397.449,160.621 397.201,159.904 397.094 C 159.187 396.988,157.970 396.671,157.200 396.390 C 156.430 396.110,155.440 395.750,155.000 395.591 C 150.014 393.787,149.947 393.646,150.089 385.392 L 150.200 379.000 151.300 378.873 C 151.905 378.804,152.400 378.918,152.400 379.127 C 152.400 379.336,152.715 379.616,153.100 379.749 C 153.485 379.882,154.340 380.342,155.000 380.770 C 155.660 381.199,157.370 382.114,158.800 382.803 C 160.230 383.491,161.676 384.200,162.013 384.377 C 162.350 384.554,163.203 384.825,163.909 384.980 C 164.614 385.135,165.294 385.428,165.419 385.631 C 165.545 385.834,166.188 386.000,166.850 386.000 C 167.511 386.000,168.433 386.203,168.897 386.452 C 172.153 388.195,192.734 388.218,195.874 386.483 C 196.354 386.217,197.194 386.000,197.740 386.000 C 198.286 386.000,198.793 385.865,198.867 385.700 C 198.940 385.535,199.851 384.985,200.890 384.477 C 202.664 383.610,206.800 379.907,206.800 379.185 C 206.800 379.005,207.025 378.611,207.300 378.310 C 208.198 377.328,209.200 375.156,209.200 374.191 C 209.200 373.672,209.380 373.136,209.600 373.000 C 210.092 372.696,210.144 361.883,209.659 360.895 C 209.471 360.513,209.000 359.480,208.612 358.600 C 207.086 355.136,205.617 353.044,203.440 351.233 C 203.022 350.885,202.347 350.285,201.940 349.900 C 201.533 349.515,201.102 349.200,200.983 349.200 C 200.864 349.200,199.828 348.525,198.681 347.700 C 197.534 346.875,195.967 345.854,195.198 345.430 C 194.429 345.007,193.710 344.557,193.600 344.430 C 193.490 344.304,192.770 343.854,192.000 343.430 C 191.230 343.007,190.510 342.557,190.400 342.430 C 190.290 342.304,189.300 341.737,188.200 341.171 C 186.035 340.058,182.123 337.898,180.200 336.755 C 179.540 336.363,178.235 335.640,177.300 335.150 C 176.365 334.659,175.600 334.131,175.600 333.976 C 175.600 333.820,175.285 333.588,174.900 333.458 C 174.515 333.329,173.851 332.993,173.423 332.712 C 168.376 329.386,163.611 326.116,162.828 325.440 C 160.116 323.096,156.009 318.945,156.005 318.543 C 156.002 318.291,155.730 317.982,155.400 317.855 C 155.070 317.729,154.800 317.436,154.800 317.205 C 154.800 316.973,154.350 316.071,153.800 315.200 C 153.250 314.329,152.794 313.297,152.787 312.908 C 152.780 312.519,152.510 311.851,152.187 311.424 C 151.864 310.996,151.600 310.177,151.600 309.604 C 151.600 309.030,151.439 308.389,151.242 308.180 C 151.045 307.971,150.814 306.626,150.729 305.190 L 150.574 302.581 146.879 298.790 C 144.847 296.706,143.011 294.820,142.800 294.600 C 142.588 294.380,140.476 292.250,138.107 289.867 C 135.738 287.484,130.920 282.637,127.400 279.096 C 123.880 275.555,120.145 271.855,119.100 270.874 L 117.200 269.091 117.168 313.645 M269.200 308.213 L 269.200 336.025 279.900 335.889 C 290.036 335.759,296.144 335.243,297.695 334.384 C 298.077 334.173,298.887 333.994,299.495 333.987 C 300.103 333.980,300.949 333.710,301.376 333.387 C 301.804 333.064,302.569 332.800,303.076 332.800 C 303.584 332.800,304.000 332.620,304.000 332.400 C 304.000 332.180,304.338 332.000,304.751 332.000 C 305.164 332.000,305.726 331.730,306.000 331.400 C 306.274 331.070,306.682 330.800,306.908 330.800 C 308.518 330.800,315.085 323.753,316.226 320.800 C 316.354 320.470,316.625 319.887,316.829 319.505 C 317.033 319.123,317.200 318.611,317.200 318.366 C 317.200 318.121,317.453 317.354,317.763 316.660 C 319.286 313.248,319.287 300.745,317.764 297.340 C 317.454 296.646,317.200 295.802,317.200 295.463 C 317.200 295.124,317.020 294.736,316.800 294.600 C 316.580 294.464,316.400 294.003,316.400 293.576 C 316.400 293.149,316.232 292.800,316.027 292.800 C 315.822 292.800,315.533 292.420,315.386 291.956 C 314.715 289.841,309.389 284.983,306.400 283.760 C 306.070 283.625,305.233 283.264,304.540 282.957 C 303.846 282.651,303.002 282.400,302.663 282.400 C 302.324 282.400,301.936 282.220,301.800 282.000 C 301.664 281.780,300.838 281.600,299.964 281.600 C 299.089 281.600,297.728 281.330,296.938 281.000 C 295.761 280.508,293.136 280.400,282.351 280.400 L 269.200 280.400 269.200 308.213 " stroke="none" fill="#653c90" fill-rule="evenodd"></path><path id="path1" d="M3.700 0.412 C 3.205 0.611,2.800 0.960,2.800 1.187 C 2.800 1.414,2.530 1.600,2.200 1.600 C 1.870 1.600,1.600 1.780,1.600 2.000 C 1.600 2.220,1.240 2.760,0.799 3.201 C -0.380 4.380,-0.279 529.314,0.900 530.176 C 1.285 530.458,1.600 530.893,1.600 531.144 C 1.600 531.395,1.780 531.600,2.000 531.600 C 2.220 531.600,2.760 531.960,3.200 532.400 C 3.996 533.196,4.533 533.200,105.062 533.200 L 206.124 533.200 138.462 465.556 L 70.800 397.911 70.800 392.143 C 70.800 385.725,70.946 385.396,73.359 386.370 C 76.143 387.493,77.623 387.743,82.356 387.892 C 85.518 387.991,87.466 387.894,87.736 387.624 C 87.969 387.391,88.575 387.200,89.083 387.200 C 92.926 387.200,100.800 378.929,100.800 374.892 C 100.800 374.427,100.956 373.951,101.147 373.833 C 101.338 373.715,101.613 372.721,101.759 371.625 C 101.904 370.530,102.198 369.525,102.412 369.393 C 102.625 369.261,102.800 367.915,102.800 366.402 C 102.800 364.890,103.000 363.145,103.245 362.526 C 103.563 361.723,103.679 349.591,103.651 320.200 C 103.630 297.540,103.721 276.615,103.854 273.700 L 104.096 268.400 110.448 268.400 L 116.800 268.400 116.897 313.900 L 116.995 359.400 117.197 314.270 L 117.400 269.141 125.600 277.331 C 132.842 284.564,141.705 293.463,142.800 294.600 C 143.011 294.820,144.786 296.644,146.744 298.654 C 148.701 300.663,150.400 302.553,150.520 302.854 C 150.639 303.154,150.751 301.026,150.768 298.124 C 150.787 295.073,150.969 292.743,151.200 292.600 C 151.420 292.464,151.600 291.836,151.600 291.205 C 151.600 290.574,151.870 289.787,152.200 289.457 C 152.530 289.127,152.800 288.571,152.800 288.221 C 152.800 287.871,153.250 286.871,153.800 286.000 C 154.350 285.129,154.800 284.315,154.800 284.191 C 154.800 283.230,161.473 275.600,162.314 275.600 C 162.476 275.600,163.066 275.195,163.625 274.700 C 164.735 273.718,165.864 272.945,166.800 272.527 C 167.130 272.379,167.490 272.155,167.600 272.029 C 167.995 271.578,170.476 270.400,171.032 270.400 C 171.345 270.400,171.600 270.228,171.600 270.018 C 171.600 269.808,172.232 269.518,173.004 269.373 C 173.777 269.228,174.507 268.950,174.628 268.755 C 174.749 268.560,175.422 268.394,176.124 268.387 C 176.826 268.380,177.749 268.110,178.176 267.787 C 178.604 267.464,179.603 267.200,180.396 267.200 C 181.190 267.200,182.011 267.034,182.220 266.831 C 183.690 265.405,209.778 266.418,211.321 267.961 C 211.563 268.203,212.309 268.403,212.980 268.406 C 214.312 268.412,217.495 269.415,218.297 270.080 C 218.656 270.378,218.825 272.347,218.888 276.949 L 218.977 283.400 219.099 277.500 C 219.166 274.255,219.288 271.600,219.369 271.600 C 219.599 271.600,223.587 275.289,224.542 276.386 C 225.014 276.928,232.188 284.196,240.484 292.537 C 248.780 300.878,255.651 307.905,255.752 308.151 C 255.854 308.398,255.951 299.555,255.968 288.500 L 256.000 268.400 278.205 268.400 C 291.455 268.400,300.691 268.553,301.105 268.780 C 301.487 268.988,302.651 269.269,303.691 269.403 C 304.731 269.537,305.686 269.816,305.814 270.023 C 305.942 270.230,306.542 270.400,307.147 270.400 C 307.752 270.400,308.596 270.664,309.024 270.987 C 309.451 271.310,310.117 271.580,310.505 271.587 C 310.893 271.594,311.523 271.760,311.905 271.956 C 312.287 272.152,313.363 272.647,314.295 273.056 C 315.228 273.465,315.993 273.915,315.995 274.057 C 315.998 274.198,316.450 274.426,317.000 274.564 C 317.550 274.702,318.000 274.992,318.000 275.208 C 318.000 275.423,318.188 275.600,318.417 275.600 C 319.466 275.600,324.867 281.140,326.678 284.074 C 327.513 285.427,328.249 286.244,328.405 285.992 C 328.564 285.735,343.372 300.249,364.099 320.976 C 383.581 340.459,399.629 356.400,399.760 356.400 C 399.892 356.400,400.000 335.078,400.000 309.017 L 400.000 261.633 390.900 252.626 C 385.895 247.672,381.620 243.434,381.400 243.209 C 381.180 242.984,378.840 240.640,376.200 238.001 C 373.560 235.361,371.220 233.021,371.000 232.801 C 370.780 232.580,368.440 230.240,365.800 227.601 C 363.160 224.961,360.820 222.621,360.600 222.401 C 359.558 221.356,350.558 212.360,350.248 212.053 C 350.054 211.861,347.736 209.544,345.096 206.904 C 342.456 204.264,340.116 201.924,339.896 201.704 C 339.676 201.484,337.336 199.144,334.696 196.504 C 332.056 193.864,329.733 191.546,329.535 191.352 C 329.337 191.159,327.318 189.110,325.048 186.800 C 322.778 184.490,320.399 182.119,319.760 181.530 C 319.122 180.942,316.960 178.782,314.956 176.730 C 312.952 174.679,310.612 172.341,309.756 171.535 C 308.900 170.729,306.560 168.389,304.556 166.335 C 302.551 164.281,300.211 161.941,299.356 161.135 C 298.500 160.329,296.160 157.989,294.156 155.935 C 292.151 153.881,289.811 151.541,288.956 150.735 C 288.100 149.929,285.760 147.589,283.756 145.535 C 281.751 143.481,279.411 141.141,278.556 140.336 C 272.761 134.883,271.216 132.702,273.531 133.240 C 274.339 133.427,276.440 133.556,278.200 133.525 L 281.400 133.468 277.600 133.182 C 271.572 132.729,269.212 131.540,267.620 128.154 C 266.804 126.417,266.800 126.093,266.800 63.204 L 266.800 0.000 135.700 0.025 C 58.536 0.040,4.230 0.200,3.700 0.412 M279.081 12.187 C 279.737 13.088,280.400 13.497,280.400 13.000 C 280.400 12.729,278.855 11.200,278.581 11.200 C 278.461 11.200,278.686 11.644,279.081 12.187 M289.481 22.587 C 290.135 23.485,290.800 23.897,290.800 23.405 C 290.800 23.049,289.429 21.600,289.092 21.600 C 288.911 21.600,289.086 22.044,289.481 22.587 M299.999 32.998 C 300.514 33.548,301.009 33.925,301.097 33.836 C 301.332 33.601,299.888 32.000,299.441 32.000 C 299.232 32.000,299.483 32.449,299.999 32.998 M310.399 43.398 C 310.914 43.948,311.409 44.325,311.497 44.236 C 311.732 44.001,310.288 42.400,309.841 42.400 C 309.632 42.400,309.883 42.849,310.399 43.398 M320.799 53.798 C 321.314 54.348,321.809 54.725,321.897 54.636 C 322.132 54.401,320.688 52.800,320.241 52.800 C 320.032 52.800,320.283 53.249,320.799 53.798 M331.506 64.412 C 332.225 65.065,333.125 65.599,333.506 65.598 C 333.951 65.596,333.769 65.371,333.000 64.969 C 332.340 64.625,331.656 64.087,331.480 63.772 C 331.304 63.457,330.944 63.205,330.680 63.212 C 330.416 63.218,330.788 63.758,331.506 64.412 M340.800 73.434 C 340.800 73.669,341.250 74.283,341.800 74.800 C 342.350 75.317,342.800 75.610,342.800 75.452 C 342.800 75.294,342.350 74.680,341.800 74.087 C 341.250 73.493,340.800 73.200,340.800 73.434 M351.213 83.864 C 351.197 84.420,353.467 86.400,354.120 86.400 C 354.372 86.400,354.133 86.091,353.589 85.712 C 353.045 85.334,352.291 84.659,351.913 84.212 C 351.536 83.766,351.221 83.609,351.213 83.864 M361.609 93.864 C 361.600 94.742,363.665 96.809,364.531 96.789 C 364.789 96.784,364.508 96.474,363.907 96.101 C 363.306 95.728,362.545 94.878,362.216 94.212 C 361.707 93.180,361.617 93.129,361.609 93.864 M372.011 104.331 C 371.995 105.116,374.225 107.201,375.069 107.191 C 375.570 107.185,375.419 106.994,374.588 106.584 C 373.922 106.255,373.072 105.494,372.699 104.893 C 372.326 104.292,372.016 104.039,372.011 104.331 M382.409 114.531 C 382.397 115.477,384.523 117.603,385.469 117.591 C 385.957 117.585,385.778 117.374,384.934 116.957 C 384.237 116.614,383.386 115.763,383.043 115.066 C 382.626 114.222,382.415 114.043,382.409 114.531 M394.400 133.200 L 389.800 133.440 394.200 133.492 C 396.620 133.521,398.960 133.389,399.400 133.200 C 399.840 133.011,399.930 132.879,399.600 132.908 C 399.270 132.936,396.930 133.068,394.400 133.200 M289.722 133.499 C 292.099 133.570,295.879 133.569,298.122 133.498 C 300.365 133.427,298.420 133.369,293.800 133.369 C 289.180 133.370,287.345 133.428,289.722 133.499 M310.522 133.499 C 312.899 133.570,316.679 133.569,318.922 133.498 C 321.165 133.427,319.220 133.369,314.600 133.369 C 309.980 133.370,308.145 133.428,310.522 133.499 M331.500 133.498 C 333.755 133.570,337.445 133.570,339.700 133.498 C 341.955 133.427,340.110 133.369,335.600 133.369 C 331.090 133.369,329.245 133.427,331.500 133.498 M352.300 133.498 C 354.555 133.570,358.245 133.570,360.500 133.498 C 362.755 133.427,360.910 133.369,356.400 133.369 C 351.890 133.369,350.045 133.427,352.300 133.498 M373.100 133.498 C 375.355 133.570,379.045 133.570,381.300 133.498 C 383.555 133.427,381.710 133.369,377.200 133.369 C 372.690 133.369,370.845 133.427,373.100 133.498 M189.318 278.298 C 191.033 278.373,193.733 278.372,195.318 278.297 C 196.903 278.221,195.500 278.159,192.200 278.160 C 188.900 278.161,187.603 278.222,189.318 278.298 M178.400 279.800 C 177.094 280.547,177.551 280.555,179.254 279.816 C 179.994 279.494,180.330 279.231,180.000 279.230 C 179.670 279.229,178.950 279.486,178.400 279.800 M298.500 281.476 C 298.885 281.576,299.515 281.576,299.900 281.476 C 300.285 281.375,299.970 281.293,299.200 281.293 C 298.430 281.293,298.115 281.375,298.500 281.476 M217.026 284.042 C 217.293 284.475,218.800 284.523,218.800 284.100 C 218.800 283.935,218.351 283.774,217.802 283.742 C 217.254 283.711,216.905 283.846,217.026 284.042 M268.937 294.200 C 268.939 295.960,269.009 296.630,269.093 295.689 C 269.178 294.749,269.177 293.309,269.091 292.489 C 269.005 291.670,268.936 292.440,268.937 294.200 M330.420 292.000 C 330.416 292.110,330.671 292.920,330.988 293.800 C 331.305 294.680,331.566 295.040,331.568 294.600 C 331.571 293.935,330.445 291.385,330.420 292.000 M164.229 295.029 C 164.081 295.615,164.051 296.184,164.161 296.294 C 164.271 296.404,164.481 296.015,164.629 295.429 C 164.776 294.842,164.806 294.273,164.696 294.163 C 164.586 294.053,164.376 294.442,164.229 295.029 M318.440 301.033 C 318.462 301.675,318.633 302.650,318.820 303.200 C 319.049 303.874,319.084 303.549,318.928 302.200 C 318.669 299.950,318.379 299.259,318.440 301.033 M332.558 305.800 C 332.558 308.880,332.621 310.087,332.697 308.482 C 332.773 306.878,332.773 304.358,332.696 302.882 C 332.619 301.407,332.557 302.720,332.558 305.800 M164.068 302.400 C 164.088 303.439,164.718 305.146,164.732 304.200 C 164.738 303.760,164.589 303.040,164.400 302.600 C 164.189 302.110,164.061 302.032,164.068 302.400 M319.324 306.600 C 319.326 307.920,319.401 308.412,319.490 307.693 C 319.579 306.974,319.577 305.894,319.486 305.293 C 319.395 304.692,319.322 305.280,319.324 306.600 M318.600 311.200 C 318.445 312.328,318.402 313.336,318.506 313.439 C 318.609 313.542,318.816 312.700,318.967 311.567 C 319.117 310.434,319.159 309.426,319.061 309.328 C 318.963 309.229,318.755 310.072,318.600 311.200 M268.937 315.000 C 268.939 316.760,269.009 317.430,269.093 316.489 C 269.178 315.549,269.177 314.109,269.091 313.289 C 269.005 312.470,268.936 313.240,268.937 315.000 M331.132 317.600 C 331.006 318.150,330.778 318.960,330.626 319.400 C 330.474 319.840,330.642 319.695,330.999 319.077 C 331.357 318.459,331.585 317.649,331.505 317.277 C 331.402 316.794,331.295 316.887,331.132 317.600 M158.800 321.730 C 160.010 323.011,161.360 324.248,161.800 324.479 C 162.390 324.788,162.337 324.659,161.600 323.987 C 161.050 323.485,159.700 322.248,158.600 321.238 L 156.600 319.400 158.800 321.730 M309.000 329.460 C 307.795 330.536,307.705 330.685,308.636 330.063 C 309.741 329.324,311.132 327.976,310.749 328.015 C 310.667 328.023,309.880 328.673,309.000 329.460 M268.909 334.400 C 268.909 335.390,268.987 335.795,269.082 335.300 C 269.178 334.805,269.178 333.995,269.082 333.500 C 268.987 333.005,268.909 333.410,268.909 334.400 M301.376 333.387 C 300.366 334.151,300.804 334.159,302.254 333.402 C 302.884 333.074,303.119 332.804,302.776 332.802 C 302.434 332.801,301.804 333.064,301.376 333.387 M295.300 335.076 C 295.685 335.176,296.315 335.176,296.700 335.076 C 297.085 334.975,296.770 334.893,296.000 334.893 C 295.230 334.893,294.915 334.975,295.300 335.076 M291.000 335.600 C 289.981 336.038,291.032 336.038,292.400 335.600 C 293.204 335.343,293.243 335.277,292.600 335.268 C 292.160 335.262,291.440 335.411,291.000 335.600 M319.293 336.833 C 318.575 337.475,318.125 337.994,318.294 337.987 C 318.707 337.970,320.931 335.998,320.746 335.813 C 320.665 335.732,320.012 336.191,319.293 336.833 M213.983 342.900 C 214.964 343.945,215.819 344.800,215.883 344.800 C 216.184 344.800,215.866 344.441,214.100 342.783 L 212.200 341.000 213.983 342.900 M297.700 347.076 C 298.085 347.176,298.715 347.176,299.100 347.076 C 299.485 346.975,299.170 346.893,298.400 346.893 C 297.630 346.893,297.315 346.975,297.700 347.076 M293.800 347.600 C 292.693 347.882,292.677 347.909,293.600 347.947 C 294.150 347.969,294.870 347.813,295.200 347.600 C 295.881 347.160,295.529 347.160,293.800 347.600 M268.937 356.600 C 268.939 358.360,269.009 359.030,269.093 358.089 C 269.178 357.149,269.177 355.709,269.091 354.889 C 269.005 354.070,268.936 354.840,268.937 356.600 M222.030 354.400 C 222.028 354.976,223.157 357.266,223.186 356.746 C 223.194 356.606,222.937 355.886,222.616 355.146 C 222.294 354.406,222.031 354.070,222.030 354.400 M224.153 366.200 C 224.153 368.840,224.218 369.868,224.297 368.484 C 224.375 367.101,224.374 364.941,224.295 363.684 C 224.216 362.428,224.152 363.560,224.153 366.200 M116.454 363.067 C 116.425 363.544,116.296 364.264,116.170 364.667 C 115.952 365.361,115.964 365.362,116.396 364.688 C 116.647 364.297,116.775 363.577,116.681 363.088 C 116.509 362.201,116.509 362.201,116.454 363.067 M210.151 367.200 C 210.151 369.730,210.216 370.765,210.296 369.500 C 210.375 368.235,210.375 366.165,210.296 364.900 C 210.216 363.635,210.151 364.670,210.151 367.200 M115.542 369.400 C 115.416 370.060,115.186 370.960,115.031 371.400 C 114.876 371.840,115.042 371.695,115.399 371.077 C 115.757 370.459,115.987 369.559,115.910 369.077 C 115.793 368.347,115.732 368.401,115.542 369.400 M268.940 377.200 C 268.940 379.070,269.009 379.835,269.093 378.900 C 269.177 377.965,269.177 376.435,269.093 375.500 C 269.009 374.565,268.940 375.330,268.940 377.200 M206.719 379.203 C 205.842 380.743,206.102 380.742,207.200 379.200 C 207.670 378.540,207.907 378.001,207.727 378.003 C 207.547 378.004,207.093 378.544,206.719 379.203 M150.267 379.067 C 149.902 379.431,149.939 392.084,150.306 392.664 C 150.468 392.919,150.543 390.057,150.473 386.304 C 150.374 380.985,150.462 379.407,150.873 379.146 C 151.164 378.962,151.206 378.810,150.967 378.806 C 150.728 378.803,150.413 378.920,150.267 379.067 M218.800 384.000 C 218.330 384.660,218.036 385.200,218.146 385.200 C 218.256 385.200,218.730 384.660,219.200 384.000 C 219.670 383.340,219.964 382.800,219.854 382.800 C 219.744 382.800,219.270 383.340,218.800 384.000 M168.200 386.612 C 170.273 387.358,170.994 387.340,169.254 386.584 C 168.514 386.263,167.614 386.008,167.254 386.018 C 166.894 386.027,167.320 386.295,168.200 386.612 M195.600 386.600 C 194.294 387.347,194.751 387.355,196.454 386.616 C 197.194 386.294,197.530 386.031,197.200 386.030 C 196.870 386.029,196.150 386.286,195.600 386.600 M190.400 387.600 C 189.605 388.114,190.604 388.114,191.800 387.600 L 192.600 387.256 191.800 387.234 C 191.360 387.222,190.730 387.387,190.400 387.600 M178.900 388.297 C 180.605 388.372,183.395 388.372,185.100 388.297 C 186.805 388.222,185.410 388.161,182.000 388.161 C 178.590 388.161,177.195 388.222,178.900 388.297 M212.056 391.213 C 210.816 392.246,211.375 392.235,212.691 391.200 C 213.250 390.760,213.549 390.406,213.354 390.413 C 213.159 390.421,212.575 390.781,212.056 391.213 M101.000 395.035 L 99.800 396.066 101.100 395.206 C 101.815 394.733,102.400 394.268,102.400 394.173 C 102.400 393.873,102.231 393.978,101.000 395.035 M268.780 396.290 C 268.671 397.219,268.733 397.827,268.920 397.640 C 269.106 397.454,269.196 396.694,269.119 395.951 C 268.983 394.633,268.975 394.642,268.780 396.290 M165.546 398.616 C 166.286 398.937,167.186 399.192,167.546 399.182 C 167.906 399.173,167.480 398.905,166.600 398.588 C 164.527 397.842,163.806 397.860,165.546 398.616 M195.800 398.614 C 194.185 399.354,195.151 399.355,196.854 398.616 C 197.594 398.294,197.930 398.039,197.600 398.048 C 197.270 398.057,196.460 398.312,195.800 398.614 M79.119 400.298 C 80.944 400.372,83.824 400.372,85.519 400.297 C 87.214 400.222,85.720 400.161,82.200 400.162 C 78.680 400.162,77.294 400.224,79.119 400.298 M178.480 400.298 C 180.394 400.371,183.634 400.371,185.680 400.298 C 187.726 400.226,186.160 400.166,182.200 400.165 C 178.240 400.165,176.566 400.224,178.480 400.298 " stroke="none" fill="#7c4ca4" fill-rule="evenodd"></path><path id="path2" d="M267.200 11.440 L 267.200 21.787 272.000 17.000 C 274.640 14.367,276.800 11.921,276.800 11.566 C 276.800 10.988,270.765 4.516,269.483 3.718 C 269.202 3.543,268.573 2.881,268.086 2.246 L 267.200 1.092 267.200 11.440 M273.295 20.905 L 267.200 27.009 267.200 34.802 L 267.200 42.594 277.200 32.600 C 282.700 27.103,287.200 22.315,287.200 21.960 C 287.200 21.105,280.909 14.800,280.055 14.800 C 279.690 14.800,276.647 17.547,273.295 20.905 M278.497 36.503 L 267.200 47.805 267.200 55.601 L 267.200 63.396 282.400 48.200 C 290.760 39.842,297.600 32.714,297.600 32.359 C 297.600 31.506,291.309 25.200,290.458 25.200 C 290.093 25.200,284.711 30.286,278.497 36.503 M283.698 52.102 L 267.200 68.604 267.200 76.400 L 267.200 84.197 287.800 63.600 C 299.130 52.272,308.400 42.892,308.400 42.757 C 308.400 42.174,301.487 35.600,300.874 35.600 C 300.501 35.600,292.772 43.026,283.698 52.102 M288.900 67.761 L 267.200 89.488 267.200 97.309 L 267.200 105.131 293.000 79.334 C 307.190 65.145,318.800 53.396,318.800 53.224 C 318.800 52.585,311.925 46.001,311.275 46.017 C 310.904 46.027,300.835 55.811,288.900 67.761 M294.100 83.407 L 267.200 110.353 267.200 118.025 C 267.200 125.211,267.243 125.663,267.884 125.149 C 269.514 123.841,329.200 63.976,329.200 63.650 C 329.200 62.962,322.371 56.400,321.687 56.431 C 321.309 56.448,308.895 68.587,294.100 83.407 M300.471 97.941 C 283.459 115.023,269.443 129.126,269.323 129.281 C 268.853 129.886,272.130 132.000,273.538 132.000 C 273.986 132.000,274.464 132.180,274.600 132.400 C 274.736 132.620,276.291 132.800,278.055 132.800 L 281.263 132.800 310.431 103.656 C 326.474 87.627,339.600 74.346,339.600 74.142 C 339.600 73.471,332.689 66.799,332.037 66.841 C 331.687 66.864,317.482 80.859,300.471 97.941 M314.348 105.000 L 286.498 132.800 294.350 132.800 L 302.203 132.800 326.101 108.899 C 339.246 95.753,350.000 84.812,350.000 84.585 C 350.000 84.029,343.191 77.200,342.636 77.200 C 342.395 77.200,329.665 89.710,314.348 105.000 M330.001 110.193 L 307.403 132.800 315.203 132.800 L 323.003 132.800 341.702 114.098 C 351.986 103.813,360.400 95.200,360.400 94.958 C 360.400 94.425,353.777 87.844,353.089 87.693 C 352.820 87.634,342.431 97.759,330.001 110.193 M345.600 115.400 L 328.203 132.800 336.004 132.800 L 343.804 132.800 357.302 119.298 C 364.726 111.872,370.800 105.600,370.800 105.361 C 370.800 104.775,364.043 98.000,363.458 98.000 C 363.204 98.000,355.168 105.830,345.600 115.400 M361.200 120.600 L 349.005 132.800 356.806 132.800 L 364.607 132.800 372.904 124.497 C 377.467 119.930,381.200 115.955,381.200 115.664 C 381.200 115.040,374.463 108.400,373.830 108.400 C 373.591 108.400,367.907 113.890,361.200 120.600 M376.800 125.800 L 369.809 132.800 377.577 132.800 L 385.345 132.800 388.601 129.622 C 391.326 126.963,391.791 126.327,391.455 125.722 C 390.817 124.576,384.838 118.800,384.288 118.800 C 384.015 118.800,380.645 121.950,376.800 125.800 M392.271 130.817 L 390.742 132.800 394.769 132.800 L 398.796 132.800 396.838 130.800 C 394.431 128.342,394.179 128.343,392.271 130.817 M183.000 266.792 C 182.560 266.989,181.349 267.262,180.309 267.398 C 179.269 267.535,178.314 267.816,178.186 268.023 C 178.058 268.230,177.535 268.400,177.025 268.400 C 175.500 268.400,169.162 271.065,167.000 272.615 C 166.340 273.088,165.600 273.549,165.355 273.638 C 163.555 274.294,156.843 280.789,155.869 282.817 C 155.715 283.138,155.046 284.300,154.382 285.400 C 153.718 286.500,153.074 287.670,152.951 288.000 C 152.828 288.330,152.573 288.960,152.384 289.400 C 150.280 294.297,150.296 305.467,152.413 311.000 C 152.581 311.440,152.946 312.401,153.223 313.136 C 154.051 315.332,156.609 319.009,158.884 321.274 C 161.947 324.325,165.324 327.188,165.867 327.194 C 166.123 327.197,166.393 327.335,166.467 327.500 C 166.773 328.190,177.218 334.798,181.929 337.282 C 183.540 338.132,185.562 339.271,186.421 339.813 C 187.281 340.356,188.080 340.800,188.196 340.800 C 188.313 340.800,189.845 341.700,191.600 342.800 C 193.355 343.900,194.869 344.800,194.964 344.800 C 195.641 344.800,203.190 350.398,204.943 352.200 C 211.453 358.893,212.511 370.878,207.300 378.892 C 204.097 383.816,200.530 385.956,192.800 387.588 C 190.520 388.070,189.846 388.322,190.754 388.353 C 192.033 388.397,193.590 388.084,196.800 387.134 C 206.788 384.181,212.361 374.844,210.847 363.598 C 210.449 360.637,208.768 355.958,207.713 354.871 C 207.431 354.581,207.200 354.219,207.200 354.067 C 207.200 353.012,198.757 346.297,194.600 344.047 C 193.720 343.570,191.560 342.293,189.800 341.208 C 188.040 340.123,186.448 339.228,186.262 339.218 C 186.076 339.208,185.446 338.864,184.862 338.454 C 184.278 338.044,182.540 337.045,181.000 336.234 C 178.017 334.664,176.723 333.923,176.400 333.600 C 176.105 333.305,174.690 332.436,174.000 332.125 C 173.670 331.976,172.463 331.167,171.317 330.327 C 170.171 329.487,169.113 328.800,168.966 328.800 C 166.404 328.800,155.692 317.754,153.837 313.200 C 153.434 312.210,152.957 311.040,152.777 310.600 C 148.580 300.339,152.796 284.318,161.540 277.294 C 162.563 276.472,163.490 275.698,163.600 275.574 C 164.688 274.342,171.508 270.708,174.800 269.606 C 186.417 265.716,202.260 265.764,215.000 269.729 L 217.800 270.600 217.911 276.569 C 218.042 283.611,218.064 283.573,214.764 282.050 C 212.544 281.027,210.762 280.409,204.172 278.378 C 203.496 278.170,202.416 278.013,201.772 278.029 C 200.972 278.049,201.362 278.244,203.000 278.643 C 205.909 279.353,209.442 280.374,210.800 280.898 C 212.307 281.480,214.504 282.439,215.373 282.893 C 218.669 284.618,218.787 284.400,218.795 276.562 C 218.800 270.726,218.482 269.600,216.829 269.600 C 216.550 269.600,215.754 269.344,215.060 269.031 C 214.367 268.718,213.170 268.366,212.400 268.249 C 211.630 268.131,209.650 267.727,208.000 267.351 C 204.626 266.583,184.477 266.132,183.000 266.792 M104.267 268.667 C 104.120 268.813,104.000 289.407,104.000 314.431 C 104.000 353.212,103.911 360.393,103.400 363.065 C 103.070 364.789,102.800 366.817,102.800 367.572 C 102.800 368.326,102.626 369.496,102.413 370.172 C 102.200 370.847,101.731 372.480,101.370 373.800 C 99.357 381.164,95.429 385.416,88.619 387.603 C 86.623 388.244,77.316 388.276,76.684 387.644 C 76.440 387.400,75.820 387.200,75.306 387.200 C 74.792 387.200,73.954 386.926,73.442 386.591 C 72.001 385.647,71.337 386.184,71.057 388.522 C 70.616 392.191,70.760 397.392,71.324 398.163 C 72.978 400.426,88.583 400.612,93.800 398.430 C 94.240 398.246,95.410 397.764,96.400 397.359 C 102.926 394.688,112.800 383.521,112.800 378.811 C 112.800 378.579,112.958 378.077,113.151 377.695 C 114.116 375.785,115.125 371.655,115.423 368.400 C 115.623 366.214,115.446 366.619,114.812 369.800 C 113.632 375.718,110.659 383.740,108.735 386.197 C 102.384 394.306,98.162 397.093,89.094 399.165 C 84.487 400.217,73.943 399.447,72.108 397.923 C 71.522 397.438,71.461 387.605,72.040 387.027 C 72.157 386.910,73.230 387.198,74.426 387.666 C 77.176 388.742,86.635 388.969,89.600 388.030 C 96.329 385.897,100.632 380.502,102.543 371.800 C 102.882 370.260,103.391 368.010,103.676 366.800 C 104.077 365.092,104.239 353.908,104.397 316.800 L 104.600 269.000 110.508 268.889 L 116.416 268.779 116.243 314.889 C 116.147 340.250,115.978 362.260,115.868 363.800 L 115.666 366.600 116.203 363.200 C 116.628 360.510,116.746 350.252,116.770 314.100 L 116.800 268.400 110.667 268.400 C 107.293 268.400,104.413 268.520,104.267 268.667 M256.181 268.905 C 255.603 270.411,256.216 397.240,256.804 397.617 C 257.132 397.827,259.920 397.955,263.000 397.900 L 268.600 397.800 268.703 372.939 L 268.806 348.077 281.103 347.882 C 288.273 347.768,293.984 347.505,294.800 347.250 C 295.994 346.878,295.788 346.849,293.400 347.054 C 291.860 347.186,285.794 347.347,279.921 347.411 C 274.047 347.475,269.052 347.644,268.821 347.787 C 268.534 347.964,268.400 355.851,268.400 372.577 L 268.400 397.107 267.500 397.348 C 265.796 397.805,257.786 397.626,257.280 397.120 C 256.911 396.751,256.800 381.898,256.800 332.703 L 256.800 268.766 277.500 268.926 C 297.554 269.081,301.039 269.276,304.790 270.457 C 310.577 272.279,310.503 272.250,314.982 274.436 C 317.936 275.878,319.171 276.795,322.036 279.680 C 325.595 283.262,326.216 284.151,328.544 289.000 C 331.441 295.033,332.788 305.365,331.565 312.176 C 330.597 317.565,329.114 322.892,328.334 323.780 C 328.150 323.989,328.000 324.398,328.000 324.690 C 328.000 325.444,324.883 330.309,323.211 332.166 C 316.301 339.837,309.785 343.564,298.800 346.127 C 297.370 346.460,296.680 346.748,297.268 346.767 C 301.363 346.895,310.610 343.188,316.216 339.171 C 330.432 328.985,335.477 312.395,330.464 292.325 C 328.626 284.967,320.986 276.129,313.800 273.047 C 312.920 272.670,311.887 272.190,311.505 271.981 C 311.123 271.771,310.493 271.594,310.105 271.587 C 309.717 271.580,309.051 271.310,308.624 270.987 C 308.196 270.664,307.429 270.400,306.918 270.400 C 306.407 270.400,305.677 270.240,305.295 270.045 C 302.873 268.806,299.517 268.615,278.091 268.498 C 260.457 268.402,256.345 268.479,256.181 268.905 M184.800 277.681 C 181.850 278.099,177.987 279.131,177.420 279.651 C 177.211 279.843,176.785 280.000,176.474 280.000 C 174.236 280.000,167.331 286.363,165.501 290.113 C 163.791 293.615,163.544 294.465,163.396 297.386 C 163.318 298.934,163.335 299.660,163.434 299.000 C 164.412 292.492,166.416 288.185,170.089 284.700 C 172.346 282.558,173.169 282.064,178.600 279.592 C 181.113 278.448,186.065 277.859,193.200 277.855 C 197.853 277.852,199.857 277.742,198.600 277.560 C 195.859 277.163,187.962 277.232,184.800 277.681 M275.017 279.500 C 270.856 279.585,268.939 279.771,268.723 280.111 C 267.985 281.272,268.351 335.864,269.100 336.451 C 269.721 336.938,269.743 336.928,269.297 336.356 C 268.902 335.850,268.817 329.760,268.897 307.956 L 269.000 280.200 282.200 280.200 C 295.637 280.200,297.180 280.330,302.400 281.907 C 315.237 285.785,321.477 297.385,318.951 312.674 C 318.595 314.833,318.145 316.771,317.951 316.980 C 317.758 317.189,317.600 317.705,317.600 318.126 C 317.600 319.179,315.769 322.540,313.698 325.287 C 309.575 330.754,302.399 334.398,293.400 335.593 C 288.490 336.244,288.291 336.300,290.694 336.354 C 292.665 336.397,293.554 336.255,298.000 335.185 C 301.452 334.354,302.213 334.109,304.200 333.185 C 310.589 330.213,315.034 325.762,317.367 320.000 C 317.768 319.010,318.240 317.840,318.417 317.400 C 322.885 306.286,318.526 290.437,309.400 284.618 C 303.932 281.131,288.800 278.230,281.600 279.289 C 281.270 279.337,278.308 279.432,275.017 279.500 M163.633 302.772 C 163.492 308.704,170.206 316.691,179.800 322.002 C 181.120 322.733,182.740 323.632,183.400 324.000 C 184.060 324.368,185.680 325.263,187.000 325.988 C 188.320 326.713,189.580 327.444,189.800 327.613 C 190.020 327.783,191.730 328.726,193.600 329.711 C 198.571 332.327,200.125 333.214,200.831 333.841 C 201.179 334.148,201.578 334.400,201.719 334.400 C 203.818 334.400,215.806 345.178,218.856 349.809 C 225.015 359.159,225.072 372.604,218.994 382.518 C 210.890 395.739,196.782 400.717,172.200 399.029 L 169.800 398.864 171.800 399.254 C 178.083 400.478,190.466 400.040,196.200 398.391 C 206.794 395.344,212.841 391.784,217.081 386.096 C 217.694 385.273,218.306 384.510,218.442 384.400 C 219.062 383.898,221.610 378.762,222.313 376.600 C 227.400 360.944,221.119 346.117,205.200 336.202 C 204.210 335.585,203.310 334.964,203.200 334.822 C 202.861 334.385,197.938 331.422,195.289 330.062 C 193.909 329.352,192.199 328.430,191.489 328.012 C 190.780 327.595,189.570 326.905,188.800 326.480 C 188.030 326.056,186.731 325.330,185.912 324.868 C 185.094 324.406,183.204 323.366,181.712 322.557 C 171.619 317.085,165.683 310.840,164.264 304.200 C 163.826 302.152,163.656 301.769,163.633 302.772 M150.800 386.190 L 150.800 393.179 152.100 393.875 C 153.718 394.741,155.886 395.596,157.200 395.886 C 157.750 396.008,158.380 396.232,158.600 396.384 C 158.820 396.536,160.440 396.983,162.200 397.378 C 163.960 397.772,165.813 398.253,166.319 398.447 C 166.824 398.641,167.814 398.784,168.519 398.764 C 169.938 398.723,168.874 398.401,162.800 397.032 C 159.609 396.312,156.205 395.214,153.100 393.904 L 151.200 393.101 151.200 386.351 C 151.200 382.638,151.288 379.600,151.396 379.600 C 151.504 379.600,152.812 380.365,154.303 381.300 C 158.553 383.965,162.954 385.868,167.400 386.962 C 168.940 387.341,170.830 387.843,171.600 388.078 C 172.370 388.313,176.600 388.543,181.000 388.589 L 189.000 388.672 181.800 388.408 C 175.310 388.170,172.232 387.762,167.066 386.457 C 163.524 385.561,157.259 382.777,153.719 380.524 C 150.684 378.592,150.800 378.366,150.800 386.190 " stroke="none" fill="#9474ac" fill-rule="evenodd"></path><path id="path3" d="M266.800 63.204 C 266.800 133.531,266.600 128.183,269.320 130.719 C 272.147 133.355,268.274 133.219,337.288 133.104 C 371.523 133.047,399.655 132.879,399.803 132.730 C 400.164 132.369,399.646 130.800,399.166 130.800 C 398.957 130.800,398.174 130.170,397.426 129.400 C 396.679 128.630,395.889 128.000,395.673 128.000 C 395.456 128.000,394.766 127.370,394.139 126.599 C 393.513 125.829,392.325 124.472,391.500 123.583 C 390.675 122.695,390.000 121.825,390.000 121.651 C 390.000 121.477,389.550 121.094,389.000 120.800 C 388.450 120.506,388.000 120.025,388.000 119.732 C 388.000 119.440,387.796 119.200,387.547 119.200 C 387.298 119.200,386.802 118.885,386.444 118.500 C 386.087 118.115,385.260 117.526,384.607 117.190 C 383.954 116.855,383.145 116.050,382.810 115.402 C 382.474 114.754,381.615 113.637,380.900 112.919 C 380.185 112.201,379.600 111.420,379.600 111.183 C 379.600 110.947,379.452 110.844,379.271 110.956 C 378.904 111.183,377.600 109.810,377.600 109.195 C 377.600 108.978,377.349 108.800,377.043 108.800 C 376.736 108.800,376.384 108.536,376.260 108.213 C 376.136 107.890,375.411 107.365,374.649 107.046 C 373.164 106.426,371.765 104.704,372.189 104.018 C 372.331 103.788,372.256 103.600,372.021 103.600 C 371.457 103.600,368.026 100.107,368.311 99.822 C 368.433 99.700,368.233 99.600,367.867 99.600 C 367.500 99.600,367.200 99.330,367.200 99.000 C 367.200 98.670,366.930 98.400,366.600 98.400 C 366.270 98.400,366.000 98.119,366.000 97.776 C 366.000 97.433,365.820 97.264,365.600 97.400 C 365.380 97.536,365.200 97.372,365.200 97.036 C 365.200 96.685,364.968 96.514,364.656 96.634 C 363.908 96.921,361.600 94.904,361.600 93.964 C 361.600 93.544,361.420 93.200,361.200 93.200 C 360.980 93.200,360.800 92.900,360.800 92.533 C 360.800 92.167,360.698 91.969,360.573 92.094 C 360.292 92.374,355.600 87.716,355.600 87.157 C 355.600 86.935,355.420 86.864,355.200 87.000 C 354.640 87.346,354.700 86.660,355.280 86.080 C 355.653 85.707,355.616 85.600,355.113 85.600 C 354.758 85.600,354.387 85.825,354.289 86.100 C 354.028 86.838,352.005 85.246,351.075 83.570 C 350.658 82.816,350.155 82.140,349.958 82.067 C 349.761 81.993,349.600 81.678,349.600 81.367 C 349.600 81.055,349.330 80.800,349.000 80.800 C 348.670 80.800,348.400 80.530,348.400 80.200 C 348.400 79.870,348.213 79.600,347.985 79.600 C 347.757 79.600,346.783 78.790,345.821 77.800 C 344.859 76.810,343.889 76.000,343.666 76.000 C 342.984 76.000,340.800 73.966,340.800 73.331 C 340.800 73.002,340.170 72.121,339.400 71.374 C 338.630 70.626,338.000 69.831,338.000 69.607 C 338.000 69.383,337.807 69.200,337.571 69.200 C 337.018 69.200,336.000 68.182,336.000 67.629 C 336.000 67.393,335.730 67.200,335.400 67.200 C 335.070 67.200,334.800 67.025,334.800 66.810 C 334.800 66.596,334.215 66.125,333.500 65.763 C 331.681 64.844,330.400 63.591,330.400 62.730 C 330.400 62.329,330.220 62.000,330.000 62.000 C 329.780 62.000,329.600 61.807,329.600 61.571 C 329.600 61.336,329.343 60.886,329.029 60.571 C 328.714 60.257,328.264 60.000,328.029 60.000 C 327.793 60.000,327.600 59.730,327.600 59.400 C 327.600 59.070,327.406 58.800,327.169 58.800 C 326.609 58.800,324.400 56.591,324.400 56.031 C 324.400 55.794,324.108 55.600,323.751 55.600 C 323.190 55.600,323.177 55.505,323.651 54.900 C 324.144 54.271,324.131 54.254,323.526 54.728 C 322.370 55.632,319.712 53.546,320.105 52.043 C 320.249 51.491,320.146 51.323,319.755 51.473 C 319.424 51.600,319.200 51.427,319.200 51.043 C 319.200 50.689,318.975 50.445,318.700 50.500 C 318.425 50.555,318.245 50.375,318.300 50.100 C 318.355 49.825,318.228 49.600,318.019 49.600 C 317.566 49.600,314.000 46.050,314.000 45.599 C 314.000 45.427,313.564 45.177,313.031 45.043 C 311.808 44.736,309.600 42.902,309.600 42.193 C 309.600 41.898,308.970 40.989,308.200 40.173 C 307.430 39.356,306.800 38.533,306.800 38.344 C 306.800 38.155,306.530 38.000,306.200 38.000 C 305.870 38.000,305.600 37.719,305.600 37.376 C 305.600 37.033,305.420 36.864,305.200 37.000 C 304.980 37.136,304.800 36.967,304.800 36.624 C 304.800 36.281,304.620 36.000,304.400 36.000 C 303.299 36.000,302.464 34.510,303.143 33.756 C 303.778 33.051,303.771 33.051,302.933 33.745 C 301.602 34.849,298.863 32.933,299.313 31.213 C 299.430 30.765,299.372 30.494,299.184 30.610 C 298.800 30.847,295.200 27.395,295.200 26.789 C 295.200 26.575,295.014 26.400,294.787 26.400 C 294.559 26.400,293.852 25.867,293.214 25.215 C 292.577 24.563,291.621 23.920,291.091 23.787 C 290.535 23.648,289.717 22.855,289.163 21.918 C 287.899 19.783,282.004 13.782,280.792 13.398 C 279.284 12.919,278.361 11.575,278.595 10.200 C 278.729 9.412,278.676 9.190,278.443 9.554 C 278.093 10.097,273.600 6.000,273.600 5.138 C 273.600 4.952,273.411 4.800,273.181 4.800 C 272.613 4.800,270.800 2.806,270.800 2.182 C 270.800 1.700,267.986 0.000,267.188 0.000 C 266.939 0.000,266.800 22.674,266.800 63.204 M269.483 3.718 C 270.765 4.516,276.800 10.988,276.800 11.566 C 276.800 11.921,274.640 14.367,272.000 17.000 L 267.200 21.787 267.200 11.440 L 267.200 1.092 268.086 2.246 C 268.573 2.881,269.202 3.543,269.483 3.718 M288.600 1.600 C 288.464 1.820,288.025 2.000,287.625 2.000 C 287.225 2.000,286.651 2.315,286.349 2.700 C 285.869 3.312,285.877 3.340,286.410 2.926 C 287.609 1.993,291.377 1.761,291.042 2.640 C 290.819 3.227,290.861 3.292,291.229 2.927 C 292.006 2.156,291.345 1.200,290.036 1.200 C 289.382 1.200,288.736 1.380,288.600 1.600 M309.400 1.600 C 309.264 1.820,308.825 2.000,308.425 2.000 C 308.025 2.000,307.451 2.315,307.149 2.700 C 306.669 3.312,306.677 3.340,307.210 2.926 C 308.409 1.993,312.177 1.761,311.842 2.640 C 311.619 3.227,311.661 3.292,312.029 2.927 C 312.806 2.156,312.145 1.200,310.836 1.200 C 310.182 1.200,309.536 1.380,309.400 1.600 M330.200 1.600 C 330.064 1.820,329.614 2.000,329.200 2.000 C 328.786 2.000,328.348 2.161,328.226 2.357 C 328.097 2.566,328.627 2.570,329.503 2.367 C 331.881 1.814,332.924 1.899,332.647 2.621 C 332.511 2.977,332.578 3.137,332.805 2.997 C 333.022 2.863,333.200 2.403,333.200 1.976 C 333.200 1.124,330.689 0.809,330.200 1.600 M351.000 1.600 C 350.864 1.820,350.414 2.000,350.000 2.000 C 349.586 2.000,349.148 2.161,349.027 2.357 C 348.902 2.558,349.545 2.547,350.503 2.331 C 351.436 2.120,352.605 2.025,353.100 2.119 C 353.676 2.228,354.000 2.093,354.000 1.745 C 354.000 1.102,351.385 0.976,351.000 1.600 M371.780 1.561 C 371.571 1.760,371.040 2.006,370.600 2.108 C 370.160 2.210,370.923 2.273,372.296 2.247 C 374.000 2.215,374.794 2.041,374.796 1.700 C 374.801 1.120,372.363 1.007,371.780 1.561 M392.000 1.832 L 390.600 2.368 393.000 2.284 C 394.952 2.216,395.376 2.312,395.271 2.800 C 395.172 3.263,395.252 3.292,395.625 2.927 C 397.092 1.486,394.751 0.778,392.000 1.832 M390.181 8.900 L 388.600 10.600 390.300 9.019 C 391.235 8.149,392.000 7.384,392.000 7.319 C 392.000 7.016,391.652 7.319,390.181 8.900 M283.960 18.057 C 285.742 19.849,287.200 21.605,287.200 21.960 C 287.200 22.315,282.700 27.103,277.200 32.600 L 267.200 42.594 267.200 34.802 L 267.200 27.009 273.295 20.905 C 280.435 13.754,279.838 13.913,283.960 18.057 M398.300 15.865 C 398.580 15.978,398.800 16.752,398.800 17.621 C 398.800 18.838,398.930 19.125,399.400 18.945 C 400.618 18.477,400.182 15.595,398.900 15.632 C 398.295 15.649,398.025 15.754,398.300 15.865 M294.360 28.457 C 296.142 30.249,297.600 32.005,297.600 32.359 C 297.600 32.714,290.760 39.842,282.400 48.200 L 267.200 63.396 267.200 55.601 L 267.200 47.805 278.497 36.503 C 284.711 30.286,290.093 25.200,290.458 25.200 C 290.822 25.200,292.578 26.666,294.360 28.457 M304.975 39.056 C 306.859 40.956,308.400 42.622,308.400 42.757 C 308.400 42.892,299.130 52.272,287.800 63.600 L 267.200 84.197 267.200 76.400 L 267.200 68.604 283.698 52.102 C 292.772 43.026,300.501 35.600,300.874 35.600 C 301.246 35.600,303.092 37.155,304.975 39.056 M398.735 38.173 C 398.840 39.496,399.019 39.891,399.438 39.730 C 400.322 39.391,400.196 36.400,399.297 36.400 C 398.711 36.400,398.618 36.695,398.735 38.173 M315.375 49.456 C 317.259 51.356,318.800 53.052,318.800 53.224 C 318.800 53.396,307.190 65.145,293.000 79.334 L 267.200 105.131 267.200 97.309 L 267.200 89.488 288.900 67.761 C 300.835 55.811,310.904 46.027,311.275 46.017 C 311.647 46.008,313.492 47.555,315.375 49.456 M325.787 59.844 C 327.664 61.738,329.200 63.451,329.200 63.650 C 329.200 63.976,269.514 123.841,267.884 125.149 C 267.243 125.663,267.200 125.211,267.200 118.025 L 267.200 110.353 294.100 83.407 C 308.895 68.587,321.309 56.448,321.687 56.431 C 322.065 56.414,323.910 57.950,325.787 59.844 M398.735 58.973 C 398.840 60.296,399.019 60.691,399.438 60.530 C 400.322 60.191,400.196 57.200,399.297 57.200 C 398.711 57.200,398.618 57.495,398.735 58.973 M336.137 70.286 C 338.042 72.203,339.600 73.939,339.600 74.142 C 339.600 74.346,326.474 87.627,310.431 103.656 L 281.263 132.800 278.055 132.800 C 276.291 132.800,274.736 132.620,274.600 132.400 C 274.464 132.180,273.986 132.000,273.538 132.000 C 272.130 132.000,268.853 129.886,269.323 129.281 C 270.801 127.378,331.574 66.871,332.037 66.841 C 332.388 66.818,334.233 68.369,336.137 70.286 M346.537 80.686 C 348.442 82.603,350.000 84.358,350.000 84.585 C 350.000 84.812,339.246 95.753,326.101 108.899 L 302.203 132.800 294.350 132.800 L 286.498 132.800 314.348 105.000 C 329.665 89.710,342.395 77.200,342.636 77.200 C 342.877 77.200,344.633 78.769,346.537 80.686 M397.949 78.700 C 397.451 79.334,397.466 79.349,398.100 78.851 C 398.742 78.347,398.800 78.438,398.800 79.938 C 398.800 81.229,398.927 81.526,399.400 81.345 C 400.355 80.978,400.221 78.000,399.249 78.000 C 398.836 78.000,398.251 78.315,397.949 78.700 M356.989 91.160 C 358.865 93.008,360.400 94.717,360.400 94.958 C 360.400 95.200,351.986 103.813,341.702 114.098 L 323.003 132.800 315.203 132.800 L 307.403 132.800 330.001 110.193 C 342.431 97.759,352.820 87.634,353.089 87.693 C 353.358 87.752,355.113 89.312,356.989 91.160 M367.360 101.463 C 369.252 103.368,370.800 105.122,370.800 105.361 C 370.800 105.600,364.726 111.872,357.302 119.298 L 343.804 132.800 336.004 132.800 L 328.203 132.800 345.600 115.400 C 355.168 105.830,363.204 98.000,363.458 98.000 C 363.713 98.000,365.468 99.558,367.360 101.463 M397.949 99.500 C 397.451 100.134,397.466 100.149,398.100 99.651 C 398.742 99.147,398.800 99.238,398.800 100.738 C 398.800 102.029,398.927 102.326,399.400 102.145 C 400.355 101.778,400.221 98.800,399.249 98.800 C 398.836 98.800,398.251 99.115,397.949 99.500 M377.732 111.768 C 379.639 113.620,381.200 115.374,381.200 115.664 C 381.200 115.955,377.467 119.930,372.904 124.497 L 364.607 132.800 356.806 132.800 L 349.005 132.800 361.200 120.600 C 367.907 113.890,373.591 108.400,373.830 108.400 C 374.069 108.400,375.825 109.916,377.732 111.768 M387.919 121.900 C 392.452 126.384,392.410 125.904,388.601 129.622 L 385.345 132.800 377.577 132.800 L 369.809 132.800 376.800 125.800 C 380.645 121.950,384.015 118.800,384.288 118.800 C 384.562 118.800,386.196 120.195,387.919 121.900 M397.949 120.300 C 397.451 120.934,397.466 120.949,398.100 120.451 C 398.742 119.947,398.800 120.038,398.800 121.538 C 398.800 122.829,398.927 123.126,399.400 122.945 C 400.355 122.578,400.221 119.600,399.249 119.600 C 398.836 119.600,398.251 119.915,397.949 120.300 M396.838 130.800 L 398.796 132.800 394.769 132.800 L 390.742 132.800 392.271 130.817 C 394.179 128.343,394.431 128.342,396.838 130.800 M193.300 266.294 C 194.345 266.376,196.055 266.376,197.100 266.294 C 198.145 266.212,197.290 266.144,195.200 266.144 C 193.110 266.144,192.255 266.212,193.300 266.294 M103.767 281.600 C 103.767 285.890,103.826 287.645,103.898 285.500 C 103.970 283.355,103.970 279.845,103.898 277.700 C 103.826 275.555,103.767 277.310,103.767 281.600 M190.311 277.893 C 191.251 277.978,192.691 277.977,193.511 277.891 C 194.330 277.805,193.560 277.736,191.800 277.737 C 190.040 277.739,189.370 277.809,190.311 277.893 M198.705 278.283 C 199.202 278.379,199.922 278.375,200.305 278.275 C 200.687 278.175,200.280 278.096,199.400 278.101 C 198.520 278.105,198.207 278.187,198.705 278.283 M268.975 280.521 C 268.865 280.808,268.831 283.373,268.901 286.221 L 269.026 291.400 269.113 285.906 L 269.200 280.412 280.900 280.300 L 292.600 280.187 280.887 280.094 C 271.566 280.019,269.134 280.106,268.975 280.521 M312.800 288.200 C 313.546 288.970,314.247 289.600,314.357 289.600 C 314.467 289.600,313.946 288.970,313.200 288.200 C 312.454 287.430,311.753 286.800,311.643 286.800 C 311.533 286.800,312.054 287.430,312.800 288.200 M103.767 302.400 C 103.767 306.690,103.826 308.445,103.898 306.300 C 103.970 304.155,103.970 300.645,103.898 298.500 C 103.826 296.355,103.767 298.110,103.767 302.400 M163.728 299.200 C 163.728 300.630,163.801 301.215,163.889 300.500 C 163.978 299.785,163.978 298.615,163.889 297.900 C 163.801 297.185,163.728 297.770,163.728 299.200 M268.967 304.600 C 268.967 308.780,269.026 310.436,269.098 308.279 C 269.171 306.123,269.170 302.703,269.098 300.679 C 269.025 298.656,268.966 300.420,268.967 304.600 M103.767 323.200 C 103.767 327.490,103.826 329.245,103.898 327.100 C 103.970 324.955,103.970 321.445,103.898 319.300 C 103.826 317.155,103.767 318.910,103.767 323.200 M268.967 325.400 C 268.967 329.580,269.026 331.236,269.098 329.079 C 269.171 326.923,269.170 323.503,269.098 321.479 C 269.025 319.456,268.966 321.220,268.967 325.400 M256.142 326.600 C 256.141 328.580,256.208 329.440,256.292 328.512 C 256.376 327.584,256.377 325.964,256.295 324.912 C 256.212 323.860,256.143 324.620,256.142 326.600 M274.123 336.299 C 276.941 336.368,281.441 336.368,284.123 336.299 C 286.805 336.230,284.500 336.173,279.000 336.173 C 273.500 336.174,271.305 336.230,274.123 336.299 M103.767 344.000 C 103.767 348.290,103.826 350.045,103.898 347.900 C 103.970 345.755,103.970 342.245,103.898 340.100 C 103.826 337.955,103.767 339.710,103.767 344.000 M256.144 347.600 C 256.144 349.690,256.212 350.545,256.294 349.500 C 256.376 348.455,256.376 346.745,256.294 345.700 C 256.212 344.655,256.144 345.510,256.144 347.600 M268.934 350.800 C 268.934 352.450,269.005 353.125,269.091 352.300 C 269.178 351.475,269.178 350.125,269.091 349.300 C 269.005 348.475,268.934 349.150,268.934 350.800 M103.724 358.600 C 103.726 359.920,103.801 360.412,103.890 359.693 C 103.979 358.974,103.977 357.894,103.886 357.293 C 103.795 356.692,103.722 357.280,103.724 358.600 M268.966 366.800 C 268.966 370.870,269.025 372.535,269.098 370.500 C 269.171 368.465,269.171 365.135,269.098 363.100 C 269.025 361.065,268.966 362.730,268.966 366.800 M103.056 362.884 C 102.921 363.388,102.827 364.160,102.846 364.600 C 102.865 365.040,103.045 364.698,103.246 363.840 C 103.636 362.178,103.470 361.340,103.056 362.884 M256.144 368.400 C 256.144 370.490,256.212 371.345,256.294 370.300 C 256.376 369.255,256.376 367.545,256.294 366.500 C 256.212 365.455,256.144 366.310,256.144 368.400 M150.564 385.800 C 150.563 389.540,150.623 391.124,150.697 389.320 C 150.771 387.515,150.772 384.455,150.698 382.520 C 150.625 380.584,150.564 382.060,150.564 385.800 M268.966 387.600 C 268.966 391.670,269.025 393.335,269.098 391.300 C 269.171 389.265,269.171 385.935,269.098 383.900 C 269.025 381.865,268.966 383.530,268.966 387.600 M204.575 382.100 L 203.400 383.400 204.700 382.225 C 205.415 381.579,206.000 380.994,206.000 380.925 C 206.000 380.616,205.670 380.888,204.575 382.100 M256.144 389.200 C 256.144 391.290,256.212 392.145,256.294 391.100 C 256.376 390.055,256.376 388.345,256.294 387.300 C 256.212 386.255,256.144 387.110,256.144 389.200 M70.958 386.566 C 70.838 386.878,70.817 387.643,70.910 388.266 C 71.056 389.241,71.089 389.195,71.140 387.933 C 71.173 387.127,71.425 386.376,71.700 386.265 C 72.092 386.107,72.089 386.056,71.687 386.032 C 71.406 386.014,71.077 386.255,70.958 386.566 M81.700 388.276 C 82.085 388.376,82.715 388.376,83.100 388.276 C 83.485 388.175,83.170 388.093,82.400 388.093 C 81.630 388.093,81.315 388.175,81.700 388.276 " stroke="none" fill="#8b73ab" fill-rule="evenodd"></path></g></svg>