<?xml version="1.0"?>
<svg width="512" height="512" xmlns="http://www.w3.org/2000/svg">

 <g>
  <title>background</title>
  <rect fill="none" id="canvas_background" height="402" width="582" y="-1" x="-1"/>
 </g>
 <g>
  <title>Layer 1</title>
  <circle r="256" id="ellipse" fill="#F55247" cy="256" cx="256"/>
  <path id="logo" fill="#FFFFFF" d="m290.100006,375.600006c-3.299988,-1.100006 -5.399994,-3.5 -7.199982,-6.399994c-2.5,-4.200012 -5.200012,-8.299988 -7.600006,-12.600006c-9.100006,-16.299988 -18.200012,-32.399994 -27.300003,-48.700012c-0.300003,-0.399994 -0.5,-0.799988 -0.800003,-1.299988c-1.5,0.399994 -2.900009,0.799988 -4.400009,1.100006c-20.099991,5.199982 -40,10.399994 -60.099991,15.5c-2.400009,0.599976 -4.699997,1.299988 -7.100006,1.299988c-4.800003,0 -8.5,-2.100006 -11,-6.199982c-0.599991,-1 -1.099991,-2 -1.5,-3.200012c-18.399994,-39.799988 -36.899994,-79.699997 -55.199997,-119.400009c-3.299995,-7.099991 -6.599998,-14.300003 -9.699997,-21.300003c-0.800003,-1.799988 -1.300003,-3.699997 -2,-5.599991c-0.099998,-0.300003 -0.300003,-0.5 -0.400002,-0.800003c0,-0.800003 0,-1.5 0,-2.300003c0.099998,-0.399994 0.400002,-0.599991 0.5,-1c0.400002,-1.099991 1.099998,-1.899994 2.300003,-2.399994c0.899994,-0.400009 1.799995,-0.600006 2.699997,-0.600006c4.800003,-0.5 9.599998,-0.899994 14.400002,-1.300003c6.599998,-0.5 13.300003,-1 19.800003,-1.5c8.5,-0.599991 17,-1.399994 25.5,-2c1.399994,-0.099991 2.799988,-0.299988 4,-0.5c1.399994,0 2.799988,0 4.299988,0c0.300003,0.100006 0.5,0.100006 0.800003,0.300003c2,0.300003 3.5,1.300003 4.699997,3c1,1.5 2,3 3,4.5c25,41.900009 50.100006,83.699997 75.100006,125.599991c0.300003,0.400024 0.5,0.900024 0.899994,1.400024c32.199997,-7.700012 64.400009,-15.400024 96.800003,-23.200012c-0.399994,-0.5 -0.5,-0.899994 -0.799988,-1.100006c-10.399994,-14.599991 -20.600006,-29.199997 -30.899994,-43.799988c-0.400024,-0.5 -0.800018,-1.100006 -1,-1.800003c-0.800018,-1.5 -0.400024,-2.800003 1.099976,-3.5c1.100006,-0.5 2.300018,-1 3.5,-1.300003c5.900024,-1 11.900024,-2 17.700012,-3c7.799988,-1.300003 15.700012,-2.699997 23.399994,-3.899994c2,-0.400009 3.899994,-0.600006 5.899994,-0.900009c1.800018,-0.300003 3.400024,0.300003 4.900024,1.300003c1.5,1.100006 2.799988,2.5 4,3.899994c8,9.800003 15.899994,19.700012 23.899994,29.5c4.199982,5.200012 8.5,10.400009 12.600006,15.5c0.399994,0.399994 0.599976,0.899994 0.899994,1.300018c0,0.599976 0,1.399994 0,2c-0.800018,1.299988 -2.100006,1.599976 -3.399994,2c-14,3.799988 -28,7.399994 -42,11.199982c-0.400024,0.100006 -0.900024,0.300018 -1.400024,0.399994c0.400024,0.5 0.5,0.800018 0.800018,1.100006c6.399994,8.600006 12.699982,17 19.199982,25.600006c6.400024,8.600006 12.700012,17.200012 19.100006,25.799988c0.5,0.800018 1,1.5 1.399994,2.400024c0.800018,1.5 0.400024,2.799988 -1,3.699982c-0.899994,0.600006 -1.799988,1.100006 -2.799988,1.399994c-3.200012,1.300018 -6.299988,2.400024 -9.5,3.5c-26,9.300018 -52,18.700012 -78,28c-6.299988,2.300018 -12.600006,4.400024 -19.100006,6.600006c-1.600006,0.5 -3.399994,0.899994 -5,1.399994c-1.300018,0.300018 -2.600006,0.300018 -4,0.300018zm-126.300003,-209.900009c-4,0.400009 -8.100006,0.800003 -12.199997,1c-4.300003,0.400009 -8.5,0.800003 -12.700012,1.100006c-5.299988,0.5 -10.699997,0.899994 -15.999992,1.399994c-3.5,0.300003 -7.099998,0.600006 -10.599998,0.900009c-0.900002,0.099991 -1.100006,0.399994 -1,1.299988c0.099998,0.5 0.299995,1 0.5,1.400009c0.399994,0.899994 0.799995,1.599991 1.299995,2.5c16.299995,33.5 32.599998,67 48.700005,100.499985c5.300003,10.900024 10.5,21.700012 15.699997,32.600006c0.300003,0.600006 0.600006,0.899994 1.300003,0.800018c0.899994,-0.100006 1.800003,-0.300018 2.5,-0.5c17.399994,-4.200012 34.699997,-8.300018 52.099991,-12.400024c1.800003,-0.399994 3.700012,-0.899994 5.400009,-1.299988c1.300003,-0.399994 1.599991,-1 1.099991,-2.299988c-0.299988,-0.600006 -0.5,-1.100006 -0.899994,-1.600006c-23.899994,-41.200012 -47.600006,-82.200012 -71.399994,-123.300018c-1.400009,-2.299988 -1.400009,-2.299988 -3.800003,-2.099991zm96.900009,137.400009c0.299988,0.5 0.399994,0.800018 0.600006,1c7.100006,12.200012 14.299988,24.600006 21.5,36.899994c2.799988,4.800018 5.699982,9.600006 8.600006,14.400024c0.599976,1 1.399994,2 2.099976,2.899994c0.900024,0.899994 2,1.100006 3.200012,0.600006c0.5,-0.300018 1,-0.400024 1.5,-0.5c21.100006,-7.200012 42.200012,-14.400024 63.200012,-21.5c9.599976,-3.300018 19.199982,-6.400024 28.799988,-9.700012c0.5,-0.100006 1.100006,-0.399994 1.600006,-0.600006c1,-0.5 1.100006,-1 0.5,-1.899994c-0.399994,-0.600006 -0.899994,-1.399994 -1.300018,-2c-3.799988,-5.299988 -7.699982,-10.5 -11.5,-15.799988c-6.299988,-8.600006 -12.5,-17.200012 -18.799988,-25.800018c-0.5,-0.799988 -1,-1.5 -1.600006,-2.299988s-1.399994,-1.100006 -2.399994,-0.800018c-0.799988,0.300018 -1.399994,0.400024 -2.100006,0.600006c-10.199982,2.700012 -20.399994,5.300018 -30.699982,8c-20.600006,5.300018 -41.200012,10.700012 -61.700012,16c-0.5,0.100006 -1,0.299988 -1.5,0.5zm100.399994,-37.5c0.300018,0 0.5,-0.100006 0.800018,-0.100006c12.099976,-3 24.399994,-5.899994 36.5,-9c0.5,-0.099976 1,-0.299988 1.5,-0.5c1.099976,-0.499985 1.399994,-1.099991 0.5,-2.099991c-0.100006,-0.100006 -0.300018,-0.399994 -0.400024,-0.5c-9,-11.399994 -17.799988,-22.699997 -26.799988,-34c-0.100006,-0.300003 -0.399994,-0.5 -0.5,-0.600006c-0.899994,-1 -1.899994,-1.299988 -3.299988,-1c-10.900024,2 -21.700012,3.900009 -32.600006,5.900009c-1.300018,0.300003 -2.700012,0.399994 -3.899994,0.800003c-1.100006,0.299988 -1.300018,0.799988 -0.800018,1.599991c0.300018,0.400009 0.5,0.900009 0.899994,1.300003c9.100006,12.399994 18.100006,24.899994 27.100006,37.199997c0.399994,0.299988 0.600006,0.699982 1,1z"/>
  <text xml:space="preserve" text-anchor="start" font-family="Helvetica, Arial, sans-serif" font-size="69" id="svg_1" y="437.317491" x="153.393971" stroke-width="0" stroke="#000" fill="#fcfcfc">Laravel</text>
 </g>
</svg>
